<svg width="123" height="55" viewBox="0 0 123 55" fill="none" xmlns="http://www.w3.org/2000/svg">
<path d="M55.5269 0V41.6044H49.8847V13.6269L16.2261 47.2933L5.66544 36.7405L5.64209 28.7324L10.5294 33.6197L16.2261 39.3086L55.5269 0Z" fill="#1AB3E5"/>
<path d="M55.5272 43.2932H49.885V54.5231H55.5272V43.2932Z" fill="#1AB3E5"/>
<path d="M5.6422 28.7324H0V43.6201H5.6422V28.7324Z" fill="#1AB3E5"/>
<path d="M67.2473 25.3627V31.9699C66.6481 31.3317 65.9865 30.857 65.255 30.5379C64.5235 30.2266 63.7141 30.0632 62.8347 30.0632C61.6985 30.0632 60.7179 30.3512 59.9008 30.9193C59.0758 31.4874 58.5544 32.1489 58.3287 32.896C58.0952 33.6509 57.9785 34.9194 57.9785 36.7171V41.6044H65.076V36.3669C65.076 35.4486 65.1538 34.8571 65.3017 34.5925C65.4496 34.3357 65.7297 34.2034 66.15 34.2034C66.5858 34.2034 66.8737 34.3435 67.0216 34.6392C67.1695 34.9272 67.2395 35.5031 67.2395 36.3591V41.6044H74.3448V25.3627H67.2473ZM67.2395 43.2932V47.161C67.2395 48.4607 67.1695 49.2778 67.0138 49.6125C66.8582 49.9471 66.5547 50.1105 66.0955 50.1105C65.6986 50.1105 65.4262 49.9627 65.2861 49.6592C65.1538 49.3634 65.076 48.7408 65.076 47.7914V43.2932H57.9785V47.628C57.9785 49.3556 58.103 50.6008 58.3287 51.3557C58.5544 52.1184 59.0758 52.7877 59.8774 53.3713C60.6868 53.9472 61.644 54.2352 62.7413 54.2352C63.5585 54.2352 64.3445 54.0562 65.0994 53.706C65.8465 53.3558 66.5624 52.8266 67.2395 52.1262V53.8149H74.3448V43.2932H67.2395Z" fill="#1AB3E5"/>
<path d="M86.2595 44.2193H92.5866C92.5788 46.0793 92.5088 47.4801 92.3842 48.4062C92.2675 49.3401 91.8706 50.2973 91.2091 51.2701C90.5476 52.2507 89.6838 52.99 88.6176 53.4881C87.5514 53.9862 86.2362 54.2352 84.6642 54.2352C82.6563 54.2352 81.0765 53.885 79.9014 53.2079C78.734 52.5231 77.9013 51.5581 77.411 50.3207C76.9285 49.0833 76.6873 47.3245 76.6873 45.052V43.2932H83.777V47.6124C83.777 48.4451 83.8859 49.0677 84.096 49.4802C84.3062 49.9004 84.6175 50.1028 85.0299 50.1028C85.5047 50.1028 85.8393 49.8849 86.0027 49.4568C86.1739 49.021 86.2595 48.2039 86.2595 46.9898V44.2193Z" fill="#1AB3E5"/>
<path d="M83.777 41.6044H76.6873V38.4292C76.6873 36.4447 76.8818 34.9505 77.2787 33.9388C77.6756 32.9349 78.5317 32.0321 79.8313 31.2461C81.131 30.4523 82.7186 30.0554 84.5786 30.0554C86.4308 30.0554 88.0106 30.4445 89.3258 31.2306C90.6332 32.0166 91.5048 33.0049 91.9407 34.2034C92.3687 35.4097 92.5866 37.1062 92.5866 39.2931H85.886V36.6082C85.886 35.6665 85.8082 35.0361 85.6603 34.7015C85.5047 34.3668 85.2323 34.2034 84.8198 34.2034C84.4073 34.2034 84.135 34.3513 83.9871 34.6392C83.8548 34.9272 83.777 35.5887 83.777 36.6082V41.6044Z" fill="#1AB3E5"/>
<path d="M100.712 40.8573V38.8261C100.712 38.2425 100.68 37.8767 100.61 37.7288C100.548 37.581 100.408 37.5109 100.19 37.5109C99.9333 37.5109 99.7776 37.5965 99.7076 37.7755C99.6453 37.9467 99.6064 38.3359 99.6064 38.9273V44.3283C99.6064 44.8964 99.6453 45.2699 99.7076 45.4411C99.7776 45.6124 99.9333 45.698 100.167 45.698C100.392 45.698 100.533 45.6124 100.603 45.4411C100.673 45.2699 100.712 44.8575 100.712 44.2193V42.7562H103.739V43.2932C103.731 44.4528 103.645 45.2855 103.482 45.7758C103.311 46.2816 102.937 46.7252 102.354 47.0988C101.77 47.4801 101.054 47.6669 100.198 47.6669C99.3107 47.6669 98.5792 47.5112 98.0033 47.1844C97.4352 46.8653 97.046 46.4217 96.8671 45.8536C96.6803 45.2855 96.5791 44.4294 96.5791 43.2932V39.8923C96.5791 39.0518 96.6102 38.4215 96.6647 38.0012C96.727 37.581 96.8982 37.1763 97.1783 36.7872C97.4663 36.3981 97.8632 36.0945 98.369 35.8766C98.8749 35.6509 99.4586 35.542 100.112 35.542C101.007 35.542 101.739 35.7132 102.322 36.0556C102.898 36.3981 103.28 36.8339 103.466 37.3475C103.645 37.8611 103.739 38.6627 103.739 39.7522V40.8573H100.712Z" fill="#1AB3E5"/>
<path d="M111.171 39.7211C111.077 39.3942 110.906 39.0752 110.649 38.7639C110.393 38.4448 110.035 38.1958 109.568 38.0012C109.101 37.8066 108.54 37.7133 107.887 37.7133C107.108 37.7133 106.47 37.8611 105.972 38.1646C105.474 38.4681 105.132 38.865 104.937 39.3631C104.75 39.8612 104.649 40.5538 104.649 41.441V43.8924C104.649 44.7018 104.704 45.3088 104.813 45.7135C104.914 46.1182 105.093 46.4606 105.334 46.7486C105.583 47.0287 105.933 47.2466 106.377 47.3867C106.82 47.5268 107.365 47.5968 108.011 47.5968C108.587 47.5968 109.093 47.519 109.536 47.3478C109.98 47.1844 110.346 46.9276 110.626 46.5851C110.906 46.2349 111.093 45.8614 111.179 45.4567C111.264 45.0598 111.311 44.4294 111.311 43.5734V41.2309C111.311 40.5616 111.264 40.0557 111.171 39.7211ZM108.4 44.9119C108.4 45.3244 108.377 45.5968 108.322 45.7213C108.268 45.8458 108.151 45.9081 107.98 45.9081C107.809 45.9081 107.7 45.838 107.645 45.7057C107.583 45.5656 107.552 45.2699 107.552 44.8185V40.5149C107.552 40.0246 107.583 39.7211 107.645 39.5888C107.7 39.4643 107.817 39.402 107.988 39.402C108.159 39.402 108.276 39.4643 108.322 39.5888C108.377 39.7211 108.408 40.0246 108.408 40.5149H108.4V44.9119Z" fill="#1AB3E5"/>
<path d="M112.268 37.8845V47.4257H115.256V37.8845H112.268ZM112.268 35.7833V37.3008H115.256V35.7833H112.268Z" fill="#1AB3E5"/>
<path d="M119.257 37.8845L119.202 38.7639C119.412 38.4137 119.669 38.1491 119.973 37.9779C120.276 37.8066 120.626 37.7133 121.023 37.7133C121.521 37.7133 121.934 37.83 122.245 38.0635C122.564 38.2969 122.766 38.5927 122.86 38.9507C122.953 39.3086 123 39.9001 123 40.7406V47.4334H120.097V40.8262C120.097 40.1725 120.074 39.7678 120.035 39.6277C119.988 39.4798 119.871 39.4098 119.677 39.4098C119.475 39.4098 119.342 39.4954 119.288 39.6588C119.233 39.8223 119.21 40.2659 119.21 40.9896V47.4412H116.307V37.8845H119.257Z" fill="#1AB3E5"/>
<g clip-path="url(#clip0_202_57)">
<path d="M76.112 22.4726C77.4516 22.4726 78.5376 21.4058 78.5376 20.0898C78.5376 18.7738 77.4516 17.707 76.112 17.707C74.7725 17.707 73.6865 18.7738 73.6865 20.0898C73.6865 21.4058 74.7725 22.4726 76.112 22.4726Z" fill="#26A7DF"/>
<path d="M67.7638 20.5898C68.0716 19.3091 67.2643 18.0258 65.9606 17.7234C64.657 17.4209 63.3506 18.214 63.0427 19.4947C62.7349 20.7754 63.5422 22.0588 64.8459 22.3612C66.1496 22.6636 67.4559 21.8705 67.7638 20.5898Z" fill="#26A7DF"/>
<path d="M76.112 22.8261C74.576 22.8261 73.3267 21.5987 73.3267 20.0898C73.3267 18.5809 74.576 17.3535 76.112 17.3535C77.6481 17.3535 78.8974 18.5809 78.8974 20.0898C78.8974 21.5987 77.6481 22.8261 76.112 22.8261ZM76.112 17.9626C74.9172 17.9626 73.9467 18.9175 73.9467 20.0898C73.9467 21.2636 74.9188 22.217 76.112 22.217C77.3069 22.217 78.2774 21.2621 78.2774 20.0898C78.279 18.9175 77.3069 17.9626 76.112 17.9626Z" fill="url(#paint0_linear_202_57)"/>
<path d="M76.112 21.6768C77.0042 21.6768 77.7275 20.9663 77.7275 20.0898C77.7275 19.2133 77.0042 18.5028 76.112 18.5028C75.2198 18.5028 74.4966 19.2133 74.4966 20.0898C74.4966 20.9663 75.2198 21.6768 76.112 21.6768Z" fill="url(#paint1_linear_202_57)"/>
<path d="M65.4035 22.7771C63.8675 22.7771 62.6182 21.5498 62.6182 20.0408C62.6182 18.5319 63.8675 17.3045 65.4035 17.3045C66.9396 17.3045 68.1889 18.5319 68.1889 20.0408C68.1874 21.5498 66.938 22.7771 65.4035 22.7771ZM65.4035 17.9152C64.2087 17.9152 63.2382 18.8701 63.2382 20.0424C63.2382 21.2161 64.2103 22.1696 65.4035 22.1696C66.5984 22.1696 67.5689 21.2146 67.5689 20.0424C67.5689 18.8686 66.5968 17.9152 65.4035 17.9152Z" fill="url(#paint2_linear_202_57)"/>
<path d="M65.4035 21.6293C66.2957 21.6293 67.019 20.9188 67.019 20.0423C67.019 19.1659 66.2957 18.4554 65.4035 18.4554C64.5114 18.4554 63.7881 19.1659 63.7881 20.0423C63.7881 20.9188 64.5114 21.6293 65.4035 21.6293Z" fill="url(#paint3_linear_202_57)"/>
<path d="M78.0812 18.4799C78.0812 18.9849 77.6637 19.395 77.1496 19.395C76.6355 19.395 76.218 18.9849 76.218 18.4799C76.218 17.9748 76.6355 17.5647 77.1496 17.5647C77.6637 17.5647 78.0812 17.9748 78.0812 18.4799Z" fill="white"/>
<path d="M78.1559 19.8526C78.1559 20.0837 77.9643 20.2719 77.7291 20.2719C77.4939 20.2719 77.3022 20.0837 77.3022 19.8526C77.3022 19.6215 77.4939 19.4333 77.7291 19.4333C77.9643 19.4333 78.1559 19.62 78.1559 19.8526Z" fill="white"/>
<path d="M67.3727 18.4324C67.3727 18.9374 66.9552 19.3476 66.4411 19.3476C65.927 19.3476 65.5095 18.9374 65.5095 18.4324C65.5095 17.9274 65.927 17.5172 66.4411 17.5172C66.9552 17.5172 67.3727 17.9258 67.3727 18.4324Z" fill="white"/>
<path d="M67.0189 20.2229C67.2546 20.2229 67.4457 20.0352 67.4457 19.8036C67.4457 19.572 67.2546 19.3843 67.0189 19.3843C66.7831 19.3843 66.592 19.572 66.592 19.8036C66.592 20.0352 66.7831 20.2229 67.0189 20.2229Z" fill="white"/>
<path d="M64.1181 25.6373C63.7505 25.6373 63.3844 25.593 63.023 25.5042C61.5976 25.1507 60.4386 24.1391 59.7578 22.6531C59.0895 21.1947 58.9633 19.4486 59.4026 17.7376C60.317 14.1749 63.428 11.8625 66.338 12.5833C69.248 13.3041 70.8728 16.7888 69.9584 20.3499C69.5191 22.0609 68.5657 23.5392 67.2743 24.5125C66.2913 25.2548 65.2008 25.6373 64.1181 25.6373ZM65.2631 13.0073C62.9669 13.0073 60.7174 15.0059 59.979 17.8799C59.5709 19.4761 59.6846 21.0983 60.3015 22.445C60.9059 23.7642 61.9216 24.6594 63.1601 24.9655C64.4001 25.2716 65.7258 24.9563 66.8942 24.0764C68.0875 23.1796 68.9707 21.8038 69.3804 20.2076C70.2185 16.9418 68.7916 13.7617 66.1994 13.1205C65.8894 13.044 65.5762 13.0073 65.2631 13.0073Z" fill="#1AB3E5"/>
<path d="M74.3656 24.5585C73.0742 23.5852 72.1208 22.1068 71.6815 20.3959C70.7671 16.8332 72.3903 13.3486 75.3003 12.6278C78.2103 11.907 81.3213 14.2193 82.2357 17.782C82.675 19.493 82.5489 21.2391 81.8805 22.6975C81.1998 24.1835 80.0408 25.1966 78.6154 25.5486C78.2539 25.6374 77.8879 25.6818 77.5202 25.6818C76.4391 25.6818 75.347 25.2976 74.3656 24.5585ZM75.439 13.1649C72.8467 13.8061 71.4198 16.9862 72.2579 20.252C72.6676 21.8482 73.5509 23.224 74.7442 24.1223C75.9125 25.0023 77.2382 25.3175 78.4783 25.0115C79.7183 24.7038 80.734 23.8086 81.3369 22.4894C81.9538 21.1427 82.0675 19.5205 81.6578 17.9243C80.9209 15.0488 78.6699 13.0517 76.3737 13.0517C76.0621 13.0517 75.749 13.0884 75.439 13.1649Z" fill="#1AB3E5"/>
</g>
<defs>
<linearGradient id="paint0_linear_202_57" x1="75.9745" y1="13.2781" x2="76.1374" y2="21.5954" gradientUnits="userSpaceOnUse">
<stop stop-color="#233F83"/>
<stop offset="1"/>
</linearGradient>
<linearGradient id="paint1_linear_202_57" x1="75.9745" y1="13.2782" x2="76.1374" y2="21.5955" gradientUnits="userSpaceOnUse">
<stop stop-color="#233F83"/>
<stop offset="1"/>
</linearGradient>
<linearGradient id="paint2_linear_202_57" x1="65.2647" y1="13.2296" x2="65.4276" y2="21.5469" gradientUnits="userSpaceOnUse">
<stop stop-color="#233F83"/>
<stop offset="1"/>
</linearGradient>
<linearGradient id="paint3_linear_202_57" x1="65.2648" y1="13.2298" x2="65.4277" y2="21.5471" gradientUnits="userSpaceOnUse">
<stop stop-color="#233F83"/>
<stop offset="1"/>
</linearGradient>
<clipPath id="clip0_202_57">
<rect width="23.347" height="13.23" fill="white" transform="translate(59.1458 12.4518)"/>
</clipPath>
</defs>
</svg>
