<svg width="60" height="60" viewBox="0 0 60 60" fill="none" xmlns="http://www.w3.org/2000/svg">
<rect x="0.5" y="0.5" width="59" height="59" rx="7.5" fill="black" stroke="url(#paint0_linear_202_161)"/>
<path d="M18.3896 30.5321C18.2335 30.5321 18.1121 30.5408 17.9994 30.5321C17.4617 30.4974 17.0194 30.0812 17.0194 29.5521C17.0107 27.8436 16.976 26.1351 17.028 24.4266C17.0801 22.7961 18.459 21.5733 20.1589 21.5299C20.6098 21.5212 21.0695 21.5299 21.5291 21.5299C21.4164 21.1397 21.2776 20.7754 21.2169 20.4025C20.9307 18.694 21.85 17.0028 23.4198 16.3263C25.0589 15.6152 26.9149 16.0922 27.9816 17.5058C28.7535 18.5205 29.5167 19.5439 30.2885 20.5673C30.3492 20.654 30.4186 20.732 30.5053 20.8448C31.017 20.1683 31.5114 19.5092 31.997 18.8587C32.3353 18.4078 32.6735 17.9568 33.0117 17.5145C34.0351 16.1789 35.761 15.6759 37.3394 16.2396C38.8918 16.8033 39.9152 18.3037 39.8285 19.9688C39.8024 20.4892 39.629 20.9922 39.5076 21.5473C39.8805 21.5473 40.2968 21.5473 40.7131 21.5473C42.3002 21.5559 43.523 22.4579 43.8873 23.9062C43.9566 24.1924 43.9827 24.5046 43.9913 24.8082C44 26.2999 44 27.7916 44 29.2833C44 30.1592 43.6531 30.5235 42.7772 30.5582C42.7338 30.5582 42.6991 30.5668 42.6384 30.5755C42.6297 30.6882 42.621 30.7923 42.621 30.8964C42.6297 33.3594 42.6297 35.8311 42.6384 38.2942C42.6557 41.0434 40.4095 43.1942 37.6603 43.0294C37.5129 43.0208 37.3567 43.0121 37.2093 43.0121C32.7342 43.0121 28.2505 43.0034 23.7754 43.0208C23.0035 43.0208 22.2403 43.0555 21.5031 42.7866C19.5605 42.0928 18.3376 40.3236 18.355 38.2508C18.3723 35.7878 18.3723 33.3161 18.381 30.853C18.3896 30.7576 18.3896 30.6709 18.3896 30.5321ZM20.4624 30.5495C20.4624 30.7056 20.4624 30.8357 20.4624 30.9571C20.4624 33.1426 20.4624 35.3281 20.4624 37.5136C20.4624 37.8605 20.4798 38.2074 20.5144 38.5543C20.6359 39.8379 21.3297 40.6098 22.5699 40.8353C22.9081 40.896 23.255 40.922 23.6019 40.922C25.4492 40.9307 27.3051 40.922 29.1524 40.922C29.2565 40.922 29.3606 40.922 29.4473 40.922C29.4473 37.4356 29.4473 33.9925 29.4473 30.5495C26.4639 30.5495 23.4892 30.5495 20.4624 30.5495ZM31.5721 30.5495C31.5721 34.0185 31.5721 37.4616 31.5721 40.922C31.6588 40.922 31.7195 40.922 31.7889 40.922C33.6969 40.922 35.5962 40.922 37.5042 40.922C37.799 40.922 38.0852 40.896 38.3801 40.8526C39.5509 40.6791 40.2447 40.02 40.4529 38.8579C40.5223 38.4763 40.557 38.086 40.557 37.6958C40.5656 35.4235 40.5656 33.1513 40.557 30.879C40.557 30.775 40.5483 30.6709 40.5396 30.5495C37.5389 30.5495 34.5641 30.5495 31.5721 30.5495ZM29.456 23.646C29.4039 23.6287 29.3866 23.6114 29.3692 23.6114C26.2904 23.6114 23.203 23.6027 20.1242 23.6114C19.4997 23.6114 19.0921 24.071 19.0835 24.7041C19.0748 25.8316 19.0835 26.9503 19.0835 28.0778C19.0835 28.1905 19.0835 28.3119 19.0835 28.4334C22.5612 28.4334 26.0042 28.4334 29.456 28.4334C29.456 26.8376 29.456 25.2505 29.456 23.646ZM31.5721 23.6114C31.5721 25.2592 31.5721 26.8549 31.5721 28.4507C35.0325 28.4507 38.4668 28.4507 41.9359 28.4507C41.9359 28.3293 41.9359 28.2252 41.9359 28.1211C41.9359 27.0371 41.9359 25.9616 41.9359 24.8776C41.9359 24.0016 41.5456 23.62 40.6697 23.62C37.7644 23.62 34.8503 23.62 31.945 23.62C31.8236 23.6114 31.7022 23.6114 31.5721 23.6114ZM32.6128 21.5039C32.7342 21.5126 32.7863 21.5299 32.847 21.5299C33.905 21.5299 34.9718 21.5299 36.0298 21.5299C36.1773 21.5299 36.3334 21.5126 36.4808 21.4779C37.218 21.2871 37.7383 20.654 37.773 19.9168C37.8164 19.1536 37.3654 18.4598 36.6456 18.1909C35.9344 17.9221 35.1712 18.1302 34.6942 18.7373C34.0958 19.5092 33.5234 20.2897 32.9337 21.0703C32.8383 21.2004 32.7429 21.3304 32.6128 21.5039ZM28.4066 21.5126C28.2331 21.2784 28.103 21.105 27.9643 20.9228C27.4092 20.1857 26.8628 19.4485 26.2991 18.72C25.8134 18.0955 24.9982 17.9047 24.2871 18.2083C23.5846 18.5118 23.1509 19.275 23.2463 20.0209C23.3504 20.7841 23.9662 21.4692 24.7033 21.5039C25.9175 21.5473 27.1317 21.5126 28.4066 21.5126Z" fill="white"/>
<defs>
<linearGradient id="paint0_linear_202_161" x1="60" y1="30" x2="0" y2="30" gradientUnits="userSpaceOnUse">
<stop stop-color="#A6A6A6" stop-opacity="0.7"/>
<stop offset="0.5" stop-color="#A6A6A6" stop-opacity="0"/>
<stop offset="1" stop-color="#A6A6A6" stop-opacity="0.7"/>
</linearGradient>
</defs>
</svg>
