<svg width="60" height="60" viewBox="0 0 60 60" fill="none" xmlns="http://www.w3.org/2000/svg">
<rect x="0.5" y="0.5" width="59" height="59" rx="7.5" fill="black" stroke="url(#paint0_linear_216_31)"/>
<path d="M30.4679 46.9985C25.6539 46.9985 20.84 46.9985 16.0261 46.9985C14.6754 46.9985 14 46.3153 14 44.9567C14 40.025 14 35.0855 14 30.1537C14 28.8266 14.6911 28.1434 16.0182 28.1434C25.6461 28.1434 35.2661 28.1434 44.8939 28.1434C46.2446 28.1434 46.92 28.8266 46.92 30.1852C46.92 35.1169 46.92 40.0564 46.92 44.9882C46.92 46.3153 46.2289 46.9985 44.9018 46.9985C40.0957 46.9985 35.2818 46.9985 30.4679 46.9985ZM30.46 45.8206C35.2739 45.8206 40.0878 45.8206 44.9018 45.8206C45.5771 45.8206 45.7499 45.6478 45.7499 44.9725C45.7499 40.0407 45.7499 35.1012 45.7499 30.1694C45.7499 29.4941 45.5771 29.3213 44.9018 29.3213C35.2739 29.3213 25.6461 29.3213 16.0182 29.3213C15.3429 29.3213 15.1701 29.4941 15.1701 30.1694C15.1701 35.0933 15.1701 40.0172 15.1701 44.9332C15.1701 45.6557 15.3272 45.8206 16.0496 45.8206C20.8636 45.8206 25.6618 45.8206 30.46 45.8206Z" fill="white"/>
<path d="M36.6326 20.2118C36.6326 23.6043 33.8526 26.3686 30.4444 26.3686C27.0754 26.3686 24.2955 23.5807 24.2876 20.2118C24.2876 16.7957 27.0519 14 30.4287 14C33.8762 14 36.6326 16.7643 36.6326 20.2118ZM30.4365 25.1906C33.2165 25.1906 35.4625 22.9525 35.4625 20.1725C35.4625 17.4161 33.2165 15.178 30.4522 15.178C27.7194 15.178 25.4656 17.4239 25.4656 20.1568C25.4656 22.9289 27.6958 25.1906 30.4365 25.1906Z" fill="white"/>
<path d="M30.4687 44.9332C26.3694 44.9253 23.1025 41.6192 23.1182 37.4806C23.1339 33.4756 26.4558 30.2009 30.5001 30.2009C34.513 30.2009 37.8191 33.5227 37.8191 37.5435C37.8113 41.6271 34.5209 44.9332 30.4687 44.9332ZM30.5158 31.3788C27.0605 31.371 24.2962 34.1274 24.2883 37.5749C24.2805 40.9674 27.0526 43.7395 30.4608 43.7474C33.8298 43.7552 36.6255 40.9753 36.6333 37.6063C36.649 34.1902 33.8926 31.3867 30.5158 31.3788Z" fill="white"/>
<path d="M17.5268 31.6773C17.5268 32.6511 17.5268 33.5856 17.5268 34.5122C17.5268 34.9127 17.3384 35.164 17.0164 35.2033C16.6708 35.2504 16.3646 34.9991 16.3567 34.6222C16.3489 33.4442 16.3489 32.2663 16.3567 31.0883C16.3567 30.7271 16.5923 30.4993 16.9693 30.4993C18.1158 30.4915 19.2702 30.4915 20.4167 30.4993C20.7937 30.4993 21.045 30.7428 21.045 31.0805C21.0528 31.426 20.7937 31.6694 20.3932 31.6773C19.4587 31.6773 18.5242 31.6773 17.5268 31.6773Z" fill="white"/>
<path d="M43.3935 31.6772C42.5061 31.6772 41.6658 31.6772 40.8177 31.6772C40.692 31.6772 40.5742 31.6851 40.4486 31.6772C40.103 31.6537 39.8674 31.4102 39.8674 31.0883C39.8674 30.7663 40.103 30.5071 40.4486 30.5071C41.6265 30.4993 42.7966 30.4993 43.9746 30.5071C44.328 30.5071 44.5557 30.7349 44.5636 31.0883C44.5714 32.2662 44.5714 33.4442 44.5636 34.6221C44.5636 34.9755 44.3044 35.2111 43.9903 35.219C43.6605 35.2268 43.4013 34.9755 43.4013 34.6064C43.3935 33.7819 43.4013 32.9651 43.3935 32.1406C43.3935 31.9914 43.3935 31.8579 43.3935 31.6772Z" fill="white"/>
<path d="M17.5263 43.4647C18.5315 43.4647 19.4896 43.4568 20.4398 43.4647C20.8089 43.4647 21.0602 43.7238 21.0523 44.0615C21.0445 44.3835 20.8089 44.6112 20.4555 44.6348C20.4084 44.6348 20.3613 44.6348 20.3063 44.6348C19.2304 44.6348 18.1545 44.6348 17.0787 44.6348C16.5604 44.6348 16.3562 44.4306 16.3562 43.8966C16.3562 42.8207 16.3562 41.737 16.3562 40.6611C16.3562 40.1978 16.5761 39.9308 16.9452 39.9308C17.3143 39.9308 17.5263 40.2057 17.5263 40.669C17.5263 41.5799 17.5263 42.4988 17.5263 43.4647Z" fill="white"/>
<path d="M43.3935 43.4568C43.3935 42.5616 43.3935 41.7213 43.3935 40.8732C43.3935 40.7475 43.3856 40.6297 43.3935 40.5041C43.417 40.1586 43.6605 39.923 43.9824 39.923C44.3044 39.923 44.5636 40.1586 44.5636 40.512C44.5714 41.6899 44.5714 42.8679 44.5636 44.0458C44.5636 44.3992 44.328 44.627 43.9824 44.6348C42.8045 44.6427 41.6344 44.6427 40.4564 44.6348C40.103 44.6348 39.8674 44.3757 39.8674 44.0537C39.8674 43.716 40.1109 43.4647 40.48 43.4647C41.2967 43.4568 42.1213 43.4647 42.938 43.4647C43.0793 43.4568 43.2128 43.4568 43.3935 43.4568Z" fill="white"/>
<path d="M29.3848 20.2039C30.0602 20.8714 30.7041 21.5154 31.3481 22.1515C31.4266 22.23 31.5051 22.3085 31.5837 22.387C31.8507 22.6855 31.8585 23.031 31.6072 23.2666C31.3638 23.4943 31.034 23.4865 30.7512 23.2195C30.3979 22.8818 30.0602 22.5284 29.7146 22.1829C29.212 21.6803 28.7095 21.1777 28.2147 20.6751C27.8849 20.3374 27.877 20.0468 28.2069 19.717C29.0471 18.861 29.8953 18.0129 30.7512 17.1648C31.034 16.8821 31.3873 16.8742 31.6308 17.1255C31.8742 17.3689 31.8585 17.7145 31.5758 18.005C30.9554 18.6333 30.335 19.2537 29.7068 19.8819C29.6047 19.9683 29.5105 20.0704 29.3848 20.2039Z" fill="white"/>
<path d="M31.0798 41.5878C30.9934 42.114 31.2526 42.8443 30.4751 42.8443C29.6663 42.8522 29.949 42.1061 29.8547 41.5878C29.4935 41.5878 29.1479 41.5957 28.7946 41.5878C28.025 41.5643 27.4674 41.1009 27.3339 40.3863C27.2554 39.9779 27.4281 39.6481 27.7658 39.5696C28.1035 39.4911 28.3548 39.6952 28.4961 40.1114C28.5354 40.2371 28.716 40.3942 28.8417 40.3942C29.9175 40.4177 30.9934 40.4099 32.0771 40.4099C32.3363 40.4099 32.4541 40.2842 32.4541 40.0251C32.4462 39.546 32.4462 39.067 32.4541 38.5879C32.4619 38.266 32.3206 38.156 32.0143 38.156C30.9856 38.1639 29.9568 38.1639 28.9281 38.156C27.8993 38.156 27.3182 37.5671 27.3182 36.5304C27.3182 36.0357 27.3103 35.5488 27.3182 35.0541C27.326 34.1745 27.9072 33.5777 28.7867 33.5463C29.1401 33.5306 29.4935 33.5463 29.8704 33.5463C29.8783 33.4049 29.8861 33.295 29.8861 33.1929C29.894 32.549 30.0589 32.2741 30.4673 32.2662C30.8835 32.2584 31.0562 32.5411 31.0641 33.2086C31.0641 33.3028 31.0641 33.3971 31.0641 33.5463C31.4567 33.5463 31.818 33.5306 32.1792 33.5463C32.9253 33.5777 33.4671 34.041 33.6006 34.74C33.6792 35.1483 33.5064 35.4781 33.1687 35.5567C32.831 35.6352 32.5797 35.431 32.4384 35.0148C32.3991 34.8892 32.2185 34.7321 32.0928 34.7321C31.0013 34.7085 29.9097 34.7164 28.826 34.7242C28.6061 34.7242 28.4883 34.842 28.4883 35.0698C28.4883 35.5881 28.4883 36.0985 28.4883 36.6168C28.4883 36.9152 28.6689 36.9781 28.9281 36.9781C29.9725 36.9702 31.0091 36.9702 32.0536 36.9781C33.0352 36.9781 33.6242 37.5749 33.632 38.5644C33.632 39.067 33.6399 39.5696 33.632 40.0722C33.6242 40.9517 33.0431 41.5485 32.1635 41.58C31.7944 41.5957 31.441 41.5878 31.0798 41.5878Z" fill="white"/>
<defs>
<linearGradient id="paint0_linear_216_31" x1="60" y1="30" x2="0" y2="30" gradientUnits="userSpaceOnUse">
<stop stop-color="#A6A6A6" stop-opacity="0.7"/>
<stop offset="0.5" stop-color="#A6A6A6" stop-opacity="0"/>
<stop offset="1" stop-color="#A6A6A6" stop-opacity="0.7"/>
</linearGradient>
</defs>
</svg>
