<svg width="60" height="60" viewBox="0 0 60 60" fill="none" xmlns="http://www.w3.org/2000/svg">
<rect x="0.5" y="0.5" width="59" height="59" rx="7.5" fill="black" stroke="url(#paint0_linear_216_39)"/>
<path d="M29.9767 46.9371C25.0059 46.9371 20.0352 46.9371 15.0644 46.9371C13.7205 46.9371 13 46.2166 13 44.8808C13 39.7805 13 34.6802 13 29.5799C13 28.2684 13.7286 27.5398 15.0401 27.5398C25.0221 27.5398 34.996 27.5398 44.978 27.5398C46.2733 27.5398 47.01 28.2684 47.01 29.5557C47.01 34.6802 47.01 39.8048 47.01 44.9294C47.01 46.1923 46.2733 46.9371 45.0104 46.9371C39.991 46.9371 34.9879 46.9371 29.9767 46.9371ZM30.001 45.7228C34.9717 45.7228 39.9425 45.7228 44.9132 45.7228C45.6094 45.7228 45.7875 45.5447 45.7875 44.8484C45.7875 39.7724 45.7875 34.6964 45.7875 29.6204C45.7875 28.9242 45.6094 28.7542 44.9132 28.7542C34.9717 28.7542 25.0302 28.7542 15.0887 28.7542C14.3925 28.7542 14.2144 28.9323 14.2144 29.6285C14.2144 34.6883 14.2144 39.7562 14.2144 44.816C14.2144 45.5608 14.3763 45.7228 15.1292 45.7228C20.0837 45.7228 25.0464 45.7228 30.001 45.7228Z" fill="white"/>
<path d="M36.3728 19.4037C36.3647 22.8929 33.4907 25.7264 29.9691 25.7264C26.4879 25.7183 23.6221 22.8525 23.6221 19.3794C23.6302 15.8659 26.4798 13 29.9691 13C33.5393 13.0081 36.3809 15.8497 36.3728 19.4037ZM29.9772 24.5121C32.8512 24.5121 35.1665 22.2129 35.1665 19.3551C35.1665 16.5216 32.8512 14.2224 29.9934 14.2144C27.1761 14.2144 24.8445 16.5297 24.8445 19.3389C24.8364 22.1886 27.1437 24.5121 29.9772 24.5121Z" fill="white"/>
<path d="M30.017 29.6609C34.1619 29.6528 37.5783 33.0611 37.5945 37.1899C37.6026 41.3835 34.2105 44.7999 30.025 44.7999C25.7991 44.7999 22.4232 41.424 22.4151 37.1899C22.3989 33.0611 25.8234 29.669 30.017 29.6609ZM30.0008 43.6017C33.4819 43.6098 36.364 40.752 36.3721 37.2871C36.3802 33.7655 33.5386 30.8834 30.0574 30.8753C26.4872 30.8672 23.6375 33.7007 23.6294 37.2466C23.6214 40.7358 26.4791 43.5936 30.0008 43.6017Z" fill="white"/>
<path d="M16.6431 31.1748C16.6431 32.1949 16.6593 33.1664 16.6269 34.1379C16.6188 34.3403 16.4731 34.5993 16.303 34.7127C16.1654 34.8017 15.8659 34.7855 15.7202 34.6884C15.5744 34.5912 15.4449 34.3403 15.4449 34.1622C15.4206 32.9802 15.4287 31.7901 15.4368 30.6081C15.4368 30.2115 15.6797 29.9767 16.0764 29.9686C17.2664 29.9605 18.4484 29.9605 19.6385 29.9686C20.0271 29.9686 20.278 30.2276 20.2861 30.5677C20.2861 30.9239 20.0271 31.1667 19.6061 31.1748C18.6346 31.1829 17.6631 31.1748 16.6431 31.1748Z" fill="white"/>
<path d="M43.3588 31.1829C42.363 31.1829 41.432 31.1829 40.4929 31.1829C39.991 31.1829 39.7076 30.9481 39.7157 30.5595C39.7238 30.1871 39.9991 29.9685 40.4848 29.9685C41.5939 29.9685 42.7112 29.9685 43.8203 29.9685C44.3465 29.9685 44.5651 30.1871 44.5651 30.6971C44.5651 31.8305 44.5732 32.9639 44.5651 34.1054C44.5651 34.5426 44.3141 34.8179 43.9498 34.8098C43.5855 34.8017 43.3507 34.5345 43.3507 34.0812C43.3588 33.134 43.3588 32.1787 43.3588 31.1829Z" fill="white"/>
<path d="M16.6425 43.3023C17.6707 43.3023 18.6421 43.278 19.6136 43.3185C19.8241 43.3266 20.0832 43.4966 20.2046 43.6747C20.2937 43.8042 20.2451 44.1037 20.1398 44.2576C20.0508 44.3952 19.8079 44.5004 19.6298 44.5004C18.4397 44.5247 17.2578 44.5166 16.0677 44.5085C15.671 44.5085 15.4362 44.2657 15.4362 43.8609C15.4282 42.6789 15.4282 41.4888 15.4362 40.3069C15.4362 39.9183 15.6953 39.6673 16.0434 39.6673C16.3915 39.6673 16.6425 39.9183 16.6425 40.3069C16.6506 41.2864 16.6425 42.2741 16.6425 43.3023Z" fill="white"/>
<path d="M43.3586 43.3023C43.3586 42.3713 43.3586 41.4888 43.3586 40.6064C43.3586 40.4931 43.3505 40.3797 43.3586 40.2664C43.3829 39.9102 43.6339 39.6673 43.9658 39.6673C44.2977 39.6673 44.5568 39.9102 44.5649 40.2745C44.573 41.4888 44.573 42.6951 44.5649 43.9094C44.5649 44.2657 44.322 44.5085 43.9658 44.5085C42.7515 44.5166 41.5371 44.5166 40.3228 44.5085C39.9584 44.5085 39.7156 44.2414 39.7156 43.9094C39.7156 43.5613 39.9665 43.3104 40.3551 43.3023C41.2052 43.2942 42.0471 43.3023 42.8972 43.3023C43.0348 43.3023 43.1724 43.3023 43.3586 43.3023Z" fill="white"/>
<path d="M31.1266 19.3632C30.4223 18.667 29.7503 17.995 29.0784 17.3312C28.9894 17.2421 28.8922 17.1612 28.8112 17.064C28.5765 16.7807 28.5846 16.4488 28.8193 16.214C29.0622 15.9792 29.3941 15.9792 29.6694 16.2221C29.7665 16.303 29.8475 16.4002 29.9365 16.4892C30.7137 17.2664 31.4909 18.0436 32.2681 18.8208C32.6729 19.2337 32.681 19.517 32.2762 19.9218C31.4262 20.7719 30.5842 21.6219 29.7261 22.4639C29.3294 22.8605 28.7384 22.7472 28.6655 22.2534C28.6331 22.0429 28.7546 21.7514 28.9084 21.5895C29.6127 20.8366 30.3575 20.1242 31.1266 19.3632Z" fill="white"/>
<path d="M30.6328 41.3673C30.5437 41.9097 30.819 42.6545 30.0094 42.6626C29.1755 42.6707 29.4589 41.9016 29.3698 41.3673C28.9974 41.3673 28.6412 41.3754 28.2769 41.3673C27.4835 41.343 26.9088 40.8653 26.763 40.1367C26.6821 39.7158 26.8602 39.3757 27.2083 39.2948C27.5645 39.2138 27.8155 39.4243 27.9612 39.8534C28.0017 39.9829 28.1879 40.1448 28.3174 40.1448C29.4427 40.1691 30.568 40.161 31.6933 40.1529C31.92 40.1529 32.0414 40.0315 32.0414 39.7967C32.0414 39.2705 32.0414 38.7362 32.0414 38.21C32.0414 37.9023 31.8552 37.8376 31.5881 37.8376C30.5275 37.8456 29.467 37.8376 28.3984 37.8376C27.3378 37.8376 26.7387 37.2385 26.7306 36.1698C26.7306 35.6679 26.7226 35.1579 26.7306 34.6559C26.7387 33.7492 27.3378 33.134 28.2445 33.1016C28.6088 33.0854 28.9732 33.1016 29.386 33.1016C29.386 32.8668 29.386 32.6725 29.386 32.4701C29.3941 32.0491 29.6208 31.7901 29.977 31.782C30.3494 31.7739 30.5842 32.0491 30.5923 32.4863C30.5923 32.6725 30.5923 32.8587 30.5923 33.1016C30.9971 33.1016 31.3695 33.0854 31.7419 33.1016C32.511 33.134 33.0696 33.6035 33.2153 34.3321C33.2963 34.7531 33.1181 35.0931 32.77 35.1741C32.4219 35.2631 32.1629 35.0445 32.009 34.6155C31.9686 34.4859 31.7824 34.324 31.6528 34.324C30.5275 34.2997 29.4022 34.3078 28.2769 34.3159C28.0502 34.3159 27.9288 34.4374 27.9288 34.6721C27.9288 35.1984 27.9288 35.7327 27.9288 36.2589C27.9288 36.5665 28.115 36.6313 28.3822 36.6313C29.4589 36.6232 30.5356 36.6232 31.6043 36.6313C32.6162 36.6313 33.2315 37.2466 33.2315 38.2585C33.2315 38.7767 33.2396 39.2948 33.2315 39.8129C33.2234 40.7196 32.6243 41.3349 31.7176 41.3673C31.3857 41.3835 31.0214 41.3673 30.6328 41.3673Z" fill="white"/>
<defs>
<linearGradient id="paint0_linear_216_39" x1="60" y1="30" x2="0" y2="30" gradientUnits="userSpaceOnUse">
<stop stop-color="#A6A6A6" stop-opacity="0.7"/>
<stop offset="0.5" stop-color="#A6A6A6" stop-opacity="0"/>
<stop offset="1" stop-color="#A6A6A6" stop-opacity="0.7"/>
</linearGradient>
</defs>
</svg>
