<svg width="60" height="60" viewBox="0 0 60 60" fill="none" xmlns="http://www.w3.org/2000/svg">
<rect x="0.5" y="0.5" width="59" height="59" rx="7.5" fill="black" stroke="url(#paint0_linear_216_46)"/>
<path d="M35.391 30.0591C35.391 30.2689 35.391 30.4804 35.391 30.6903C35.391 34.5928 35.3958 38.4954 35.383 42.3963C35.3814 42.8289 35.3414 43.279 35.2164 43.6891C34.6365 45.5908 32.368 46.6097 30.6362 45.0284C29.9714 45.288 29.3738 45.6661 28.7394 45.7446C27.0012 45.9576 25.6315 44.5158 25.625 42.5437C25.6122 38.6219 25.6218 34.7001 25.6202 30.7768C25.6202 30.5429 25.6202 30.3074 25.6202 29.9069C25.0163 30.506 24.5309 31.0123 24.0198 31.4929C22.5203 32.9027 20.2582 32.2907 19.7023 30.3202C19.4508 29.4311 19.6302 28.5964 20.2727 27.9364C21.7305 26.4401 23.2092 24.9614 24.7119 23.5084C25.4568 22.7874 26.4004 22.4782 27.4369 22.4766C29.4683 22.4734 31.4981 22.4766 33.5295 22.475C34.6797 22.4734 35.6778 22.8643 36.4948 23.6702C37.8838 25.0399 39.2695 26.4128 40.6329 27.8098C41.6646 28.8671 41.695 30.4628 40.7434 31.4144C39.7389 32.4189 38.0088 32.4477 36.9642 31.4544C36.4676 30.9818 36.0094 30.4692 35.5336 29.9758C35.4872 30.0046 35.4391 30.0318 35.391 30.0591ZM33.7153 32.2282C33.7153 30.8088 33.7233 29.4391 33.7105 28.0709C33.7073 27.6368 33.8082 27.2795 34.2344 27.0937C34.6733 26.9031 34.9937 27.1177 35.2917 27.4173C36.2033 28.3353 37.1148 29.2516 38.0344 30.16C38.4926 30.6134 39.1318 30.6454 39.5227 30.2545C39.8687 29.9085 39.803 29.3542 39.3368 28.8832C38.02 27.5567 36.6951 26.235 35.3718 24.9133C34.8544 24.3959 34.228 24.1492 33.4926 24.1508C31.5029 24.1572 29.5148 24.1572 27.5251 24.1508C26.7897 24.1492 26.1665 24.3975 25.6475 24.9165C24.9314 25.6342 24.2121 26.3504 23.4943 27.0665C22.8615 27.6993 22.1967 28.3048 21.6136 28.9809C21.4133 29.2132 21.2931 29.6553 21.3684 29.9389C21.4357 30.1936 21.8122 30.5092 22.0733 30.5301C22.3713 30.5541 22.7574 30.349 22.9945 30.1263C23.9637 29.2132 24.8721 28.2343 25.8477 27.3276C26.0528 27.137 26.5142 27.0104 26.7401 27.1145C26.9964 27.2315 27.1854 27.6176 27.2799 27.9252C27.3697 28.2151 27.3008 28.5564 27.3008 28.8736C27.3008 29.9806 27.3008 31.0892 27.3008 32.225C29.4587 32.2282 31.5397 32.2282 33.7153 32.2282ZM33.7121 33.9744C31.5526 33.9744 29.4555 33.9744 27.3296 33.9744C27.3184 34.1042 27.3024 34.2003 27.3024 34.2964C27.3008 37.0423 27.2928 39.7866 27.312 42.5325C27.3136 42.8577 27.3953 43.2165 27.5491 43.5017C27.98 44.3043 28.9717 44.3171 29.4139 43.5209C29.5789 43.2246 29.651 42.8433 29.6558 42.4988C29.6798 40.7286 29.667 38.9583 29.667 37.1881C29.667 37.0487 29.6622 36.9093 29.6686 36.77C29.6974 36.2221 30.021 35.868 30.4936 35.86C30.9935 35.852 31.3363 36.2125 31.3395 36.8004C31.3475 38.67 31.3363 40.5412 31.3491 42.4107C31.3507 42.7231 31.3892 43.0531 31.4997 43.3415C31.6727 43.7949 32.0139 44.1025 32.5378 44.0977C33.0617 44.0929 33.3789 43.7741 33.5679 43.3255C33.6512 43.1284 33.7041 42.9025 33.7057 42.6895C33.7137 39.8058 33.7121 36.9222 33.7121 33.9744Z" fill="white"/>
<path d="M44.8526 18.8913C44.859 21.7493 42.5424 24.1332 39.7565 24.1556C39.2599 24.1604 38.9395 23.9746 38.6992 23.542C36.8408 20.1954 39.2647 15.9115 43.0855 15.7834C43.6559 15.7641 44.0772 15.9436 44.2646 16.4818C44.5338 17.2604 44.7565 18.0566 45 18.8448C44.9503 18.8609 44.9022 18.8753 44.8526 18.8913ZM42.8548 17.544C41.0846 17.7058 39.5322 19.4953 39.8478 21.0829C40.1282 20.6039 40.3813 20.1617 40.644 19.7244C40.9869 19.1556 41.4146 18.9906 41.8664 19.2454C42.3374 19.5097 42.4175 19.9855 42.0843 20.583C41.8375 21.0268 41.5796 21.4642 41.2848 21.9768C42.9125 21.2559 43.6527 19.0483 42.8548 17.544Z" fill="white"/>
<path d="M16 19.3831C16.2691 18.542 16.5159 17.693 16.817 16.8631C16.9772 16.4226 17.3633 16.2768 17.8295 16.2816C21.7 16.3296 24.212 20.6904 22.3104 24.061C22.0797 24.4696 21.7753 24.6522 21.3011 24.6506C18.5024 24.641 16.1666 22.2796 16.1586 19.4328C16.1057 19.4184 16.0529 19.4007 16 19.3831ZM19.7648 22.5311C19.438 21.9656 19.1768 21.5218 18.9269 21.0733C18.6145 20.5125 18.6866 20.0319 19.1111 19.7676C19.5677 19.484 20.0259 19.6523 20.38 20.2386C20.6491 20.684 20.9118 21.1309 21.2547 21.7061C21.2467 19.9182 20.1765 18.51 18.645 18.1015C18.3742 18.0294 18.1275 17.9429 17.9865 18.3402C17.4578 19.8205 18.198 21.7077 19.7648 22.5311Z" fill="white"/>
<path d="M34.3544 17.8868C34.34 20.0063 32.6194 21.7205 30.5079 21.7173C28.3724 21.7157 26.6518 19.9727 26.6646 17.8243C26.6742 15.684 28.4204 13.9747 30.5688 14.0003C32.6819 14.0259 34.3688 15.7577 34.3544 17.8868ZM28.3403 17.8179C28.3243 19.0419 29.2855 20.0287 30.4999 20.0351C31.6902 20.0415 32.6578 19.0883 32.6738 17.8948C32.6899 16.6693 31.7286 15.6808 30.5159 15.676C29.3272 15.6728 28.3564 16.6276 28.3403 17.8179Z" fill="white"/>
<defs>
<linearGradient id="paint0_linear_216_46" x1="60" y1="30" x2="0" y2="30" gradientUnits="userSpaceOnUse">
<stop stop-color="#A6A6A6" stop-opacity="0.7"/>
<stop offset="0.5" stop-color="#A6A6A6" stop-opacity="0"/>
<stop offset="1" stop-color="#A6A6A6" stop-opacity="0.7"/>
</linearGradient>
</defs>
</svg>
