<svg width="60" height="60" viewBox="0 0 60 60" fill="none" xmlns="http://www.w3.org/2000/svg">
<rect x="0.5" y="0.5" width="59" height="59" rx="7.5" fill="black" stroke="url(#paint0_linear_216_52)"/>
<path d="M15 37.4268C15.1346 36.9104 15.2378 36.3847 15.4131 35.8841C15.5226 35.568 15.7072 35.2676 15.9137 35.0016C16.2736 34.5354 16.7711 34.3508 17.3625 34.4165C20.5793 34.7732 23.7961 35.1268 27.016 35.4867C27.1881 35.5054 27.2976 35.4679 27.4134 35.3302C27.7701 34.9046 28.2426 34.6887 28.7965 34.6793C29.4317 34.67 30.0638 34.67 30.699 34.6793C31.2873 34.6856 31.7817 34.9172 32.1479 35.3803C32.2542 35.5148 32.3512 35.543 32.5171 35.5242C33.4965 35.4084 34.476 35.3114 35.4523 35.1988C35.6306 35.1769 35.737 35.2144 35.8184 35.3865C35.9216 35.6056 36.0656 35.8027 36.222 36.053C35.0017 36.1876 33.8063 36.319 32.5922 36.4536C32.5922 37.4768 32.5922 38.4938 32.5922 39.5327C35.8309 39.8644 39.0664 40.1961 42.3427 40.5309C41.9359 39.7423 41.7106 38.9444 41.7075 38.0776C42.0079 37.9806 42.302 37.8867 42.6243 37.7835C42.6806 38.6628 42.7338 39.5358 43.3565 40.3275C43.488 40.1085 43.6163 39.9426 43.6945 39.7549C44.045 38.935 44.1044 38.0745 44.0105 37.2015C43.9918 37.02 44.0043 36.8885 44.1607 36.7728C44.3704 36.6163 44.5644 36.4348 44.7897 36.2439C44.846 36.6288 44.9336 37.0513 44.9681 37.4768C45.0619 38.5845 44.8053 39.6266 44.3172 40.6154C43.998 41.2631 43.3065 41.5948 42.5273 41.5103C41.2193 41.3726 39.9082 41.2475 38.5971 41.1192C38.5314 41.1129 38.4656 41.1192 38.3686 41.1192C38.4469 41.2475 38.522 41.3476 38.5752 41.4571C38.6753 41.6668 38.7942 41.8733 38.8537 42.0955C38.9976 42.6368 38.7066 43.0248 38.1496 43.0561C37.7397 43.0812 37.3298 43.1031 36.923 43.1031C36.7196 43.1031 36.61 43.1594 36.5412 43.3628C36.4129 43.7414 36.2564 44.1075 36.0969 44.4736C35.8309 45.0776 35.3459 45.1714 34.8734 44.7052C34.7232 44.555 34.598 44.3766 34.4822 44.1983C33.7625 43.0843 33.0491 41.9672 32.3356 40.8501C32.2793 40.7624 32.2167 40.6748 32.1385 40.5591C31.6128 41.1786 30.9275 41.2819 30.189 41.2443C29.8573 41.2256 29.5256 41.2318 29.1939 41.2443C28.6463 41.2631 28.1237 41.2068 27.6544 40.8375C27.5824 40.9471 27.5261 41.0347 27.4697 41.1223C26.8251 42.133 26.1868 43.15 25.5359 44.1576C25.3982 44.3673 25.2449 44.5769 25.0603 44.7459C24.6128 45.1558 24.1622 45.0557 23.9181 44.5018C23.7429 44.1107 23.5864 43.7101 23.4362 43.3096C23.3799 43.1563 23.2986 43.1062 23.139 43.1031C22.7478 43.0999 22.3598 43.0749 21.9687 43.0624C21.249 43.0405 20.936 42.6055 21.1864 41.9296C21.2928 41.6417 21.4649 41.3789 21.6182 41.0816C20.8046 41.163 20.0129 41.2443 19.2181 41.3257C18.5766 41.3914 17.9383 41.4759 17.2968 41.5291C16.5364 41.5917 15.9106 41.3007 15.582 40.6091C15.3411 40.1085 15.2316 39.5452 15.0657 39.007C15.0313 38.9037 15.0188 38.8098 15 38.716C15 38.2873 15 37.8555 15 37.4268ZM26.9378 36.4129C23.8587 36.075 20.7827 35.737 17.6567 35.3928C18.101 36.2314 18.2512 37.0732 18.2794 37.9493C18.3107 38.8349 18.1354 39.6829 17.785 40.5309C20.8672 40.2086 23.8994 39.8894 26.9378 39.5702C26.9378 38.5094 26.9378 37.4768 26.9378 36.4129ZM27.8828 37.9556C27.8828 38.425 27.8765 38.8912 27.8859 39.3606C27.8953 39.8894 28.2865 40.2868 28.8153 40.2962C29.438 40.3056 30.0638 40.3056 30.6897 40.2962C31.2341 40.2868 31.6253 39.8957 31.6315 39.3449C31.6378 38.4187 31.6378 37.4925 31.6315 36.5631C31.6284 36.0155 31.231 35.6212 30.6897 35.615C30.0763 35.6056 29.4599 35.6087 28.8466 35.615C28.2833 35.6212 27.8984 36.0124 27.889 36.5787C27.8765 37.0387 27.8828 37.4956 27.8828 37.9556ZM24.641 43.804C25.3513 42.69 26.0303 41.6324 26.7344 40.5309C25.4514 40.6654 24.2311 40.7937 23.0107 40.922C22.945 40.9283 22.8542 40.9408 22.8261 40.9846C22.5851 41.3413 22.3598 41.7075 22.1282 42.0704C22.1439 42.1017 22.1595 42.133 22.1752 42.1643C22.7009 42.1643 23.2266 42.1706 23.7523 42.1612C23.9306 42.1581 24.0089 42.2269 24.0715 42.3834C24.2436 42.8402 24.4313 43.2877 24.641 43.804ZM33.2587 40.5528C33.9753 41.6699 34.6449 42.7151 35.3459 43.8071C35.5524 43.2971 35.7433 42.8433 35.9154 42.3802C35.978 42.2175 36.0624 42.1581 36.2377 42.1612C36.7696 42.1706 37.3047 42.1643 37.8367 42.1643C37.8492 42.133 37.8586 42.0986 37.8711 42.0673C37.6959 41.7919 37.5081 41.5228 37.3454 41.2381C37.2296 41.0378 37.0982 40.9126 36.8479 40.9158C36.6257 40.9189 36.4035 40.872 36.1782 40.8501C35.227 40.7562 34.2788 40.6592 33.2587 40.5528ZM16.6491 40.4933C17.6692 39.4576 17.4689 36.197 16.6178 35.665C15.7009 36.585 15.7135 39.6766 16.6491 40.4933Z" fill="white"/>
<path d="M30.5769 15C31.1558 15.1565 31.7597 15.2566 32.3136 15.4756C34.7543 16.4394 36.3314 19.0491 36.0592 21.6057C35.7619 24.4032 33.7874 26.5842 31.1057 27.0692C27.1911 27.7795 23.7052 24.7098 23.9086 20.7264C24.0557 17.8444 26.3369 15.4068 29.2126 15.0532C29.2783 15.0438 29.3409 15.0188 29.4066 15C29.7946 15 30.1857 15 30.5769 15ZM24.838 21.0675C24.838 23.9244 27.1411 26.24 29.9761 26.24C32.8424 26.24 35.1423 23.9369 35.1423 21.0643C35.1423 18.2324 32.8174 15.9325 29.9604 15.9356C27.1504 15.9419 24.838 18.2575 24.838 21.0675Z" fill="white"/>
<path d="M36.0811 32.7987C36.0748 30.3642 38.0712 28.3553 40.5026 28.3522C42.9684 28.349 44.9742 30.3267 44.9804 32.7737C44.9867 35.2489 42.9997 37.2484 40.5307 37.2515C38.0775 37.2515 36.0873 35.2614 36.0811 32.7987ZM40.5433 29.2878C38.622 29.2784 37.0261 30.8524 37.0167 32.7643C37.0073 34.7138 38.575 36.3097 40.5026 36.3128C42.4521 36.319 44.0354 34.7545 44.0417 32.8206C44.0511 30.8774 42.4865 29.2972 40.5433 29.2878Z" fill="white"/>
<path d="M28.2303 32.9301C28.2741 32.6861 28.3179 32.395 28.3836 32.1134C28.4243 31.9319 28.4024 31.8036 28.249 31.6816C28.03 31.5064 27.8047 31.3249 27.6263 31.1058C27.5168 30.9713 27.4354 30.7648 27.4448 30.5958C27.4605 30.3705 27.6701 30.2735 27.8892 30.2453C28.199 30.2015 28.5119 30.1765 28.8154 30.1108C28.9343 30.0857 29.0689 29.9887 29.1377 29.8855C29.2973 29.6414 29.4099 29.3691 29.5539 29.1157C29.7792 28.7214 30.2016 28.7245 30.4269 29.1188C30.5239 29.2878 30.6335 29.4536 30.696 29.6383C30.8275 30.0263 31.0934 30.1671 31.4846 30.1733C31.7068 30.1765 31.9321 30.2171 32.1511 30.2641C32.5798 30.3548 32.7081 30.7679 32.4014 31.0777C32.1887 31.2936 31.9634 31.4938 31.7318 31.6879C31.5972 31.8005 31.5503 31.9163 31.5941 32.0947C31.6598 32.3606 31.7318 32.6297 31.7349 32.8988C31.738 33.071 31.6755 33.315 31.5534 33.4026C31.4314 33.4903 31.1842 33.4746 31.0183 33.4183C30.7273 33.3182 30.4613 33.1398 30.1735 33.024C30.0671 32.9802 29.9106 32.9833 29.8042 33.0271C29.4976 33.1523 29.2097 33.3213 28.9093 33.4527C28.5307 33.6123 28.2083 33.3807 28.2303 32.9301ZM31.0058 31.062C30.477 31.0808 30.1735 30.8117 29.9857 30.2547C29.8105 30.8211 29.4976 31.0745 28.9656 31.0307C29.338 31.4782 29.338 31.4782 29.363 32.2198C29.7792 31.8287 30.1985 31.9006 30.6866 32.2292C30.4989 31.7035 30.5771 31.3436 31.0058 31.062Z" fill="white"/>
<path d="M26.0897 26.9503C24.1183 26.8658 22.488 27.4729 21.1581 28.8278C19.847 30.1671 19.2462 31.8068 19.2055 33.6624C19.1336 33.6624 19.0866 33.6655 19.0397 33.6624C18.7987 33.6342 18.5578 33.606 18.2449 33.5654C18.3168 33.0272 18.3419 32.4889 18.4639 31.9789C19.1774 29.0406 20.9297 27.0661 23.8743 26.2149C24.5314 26.0241 25.1416 25.949 25.6235 26.5842C25.7236 26.7125 25.8863 26.7938 26.0897 26.9503Z" fill="white"/>
<path d="M33.9502 26.9253C34.2756 26.6468 34.5729 26.3839 34.8827 26.1304C34.9421 26.0804 35.036 26.0491 35.1142 26.0522C36.272 26.0835 38.0306 26.8189 38.888 27.6356C38.597 27.7733 38.3123 27.9109 38.0244 28.0361C37.9774 28.0549 37.8898 28.0267 37.8429 27.9954C36.6976 27.2225 35.4272 26.9002 34.0566 26.9472C34.0284 26.944 34.0003 26.9346 33.9502 26.9253Z" fill="white"/>
<path d="M39.9519 32.9771C40.5872 32.5265 41.2005 32.0978 41.8107 31.6597C42.036 31.5001 42.255 31.4626 42.4741 31.6597C42.69 31.8569 42.6743 32.1885 42.4209 32.3732C41.6605 32.9239 40.8969 33.4621 40.1272 33.9941C39.8894 34.1599 39.6641 34.1192 39.4794 33.8939C39.154 33.4934 38.838 33.0835 38.5313 32.6673C38.3529 32.4264 38.3967 32.1573 38.6158 31.9977C38.8161 31.8506 39.0883 31.885 39.2667 32.1009C39.4951 32.3794 39.711 32.6673 39.9519 32.9771Z" fill="white"/>
<defs>
<linearGradient id="paint0_linear_216_52" x1="60" y1="30" x2="0" y2="30" gradientUnits="userSpaceOnUse">
<stop stop-color="#A6A6A6" stop-opacity="0.7"/>
<stop offset="0.5" stop-color="#A6A6A6" stop-opacity="0"/>
<stop offset="1" stop-color="#A6A6A6" stop-opacity="0.7"/>
</linearGradient>
</defs>
</svg>
