<svg width="50" height="50" viewBox="0 0 50 50" fill="none" xmlns="http://www.w3.org/2000/svg">
<rect x="0.5" y="0.5" width="49" height="49" rx="24.5" fill="url(#paint0_linear_202_130)" stroke="#1AB3E5"/>
<path d="M32.8434 38.9993C32.3003 38.8296 31.7286 38.7213 31.2188 38.4796C29.2884 37.5636 28.2525 35.3057 28.7786 33.2175C28.8516 32.9289 28.7825 32.812 28.5309 32.6832C26.2654 31.5222 24.0065 30.346 21.7462 29.1745C21.67 29.1349 21.593 29.0966 21.4972 29.0477C20.4587 30.4035 19.104 31.1088 17.3998 31.0197C16.2081 30.9576 15.178 30.4748 14.3488 29.6071C12.5592 27.7355 12.5495 24.899 14.3253 22.9938C16.0027 21.1935 19.1698 20.8719 21.2136 23.1648C23.7868 21.5963 26.3625 20.0266 28.9351 18.4581C27.9376 15.7669 29.4651 13.1828 31.5467 12.35C33.7685 11.4611 36.1715 12.3071 37.3919 14.4144C38.5158 16.356 38.0432 18.925 36.2934 20.4017C34.584 21.8433 31.7116 22.0289 29.75 19.8152C29.6809 19.8555 29.6078 19.8971 29.5361 19.9407C27.1142 21.4167 24.6936 22.8954 22.2684 24.3654C22.0859 24.4764 22.0396 24.5649 22.1139 24.7762C22.4047 25.6063 22.4718 26.4536 22.2371 27.3135C22.2124 27.4053 22.1987 27.5004 22.1752 27.6173C24.6278 28.8892 27.079 30.1605 29.512 31.4225C29.8582 31.0943 30.1698 30.7489 30.529 30.4669C33.2919 28.2975 37.4714 30.0376 37.9441 33.5464C38.3033 36.2171 36.5731 38.5463 33.9282 38.9525C33.878 38.9604 33.8304 38.9835 33.7815 39C33.4686 38.9993 33.1556 38.9993 32.8434 38.9993Z" fill="white"/>
<defs>
<linearGradient id="paint0_linear_202_130" x1="0" y1="25" x2="50" y2="25" gradientUnits="userSpaceOnUse">
<stop stop-color="#1AB3E5"/>
<stop offset="0.5" stop-color="#034F89"/>
<stop offset="1" stop-color="#1AB3E5"/>
</linearGradient>
</defs>
</svg>
