<svg width="1440" height="239" viewBox="0 0 1440 239" fill="none" xmlns="http://www.w3.org/2000/svg">
<mask id="mask0_97_151" style="mask-type:alpha" maskUnits="userSpaceOnUse" x="-2" y="0" width="1444" height="239">
<rect x="-1.82837" y="27.3364" width="1440" height="211" transform="rotate(-1.05991 -1.82837 27.3364)" fill="#D9D9D9"/>
</mask>
<g mask="url(#mask0_97_151)">
<path d="M3114.9 1.01149L3133.14 0.716951C3133.74 0.705869 3134.32 0.789798 3134.85 0.900263L3134.76 -6.1795L-1.47391 44.3328L-1.13078 72.188L15.6516 71.9162C22.9514 71.7983 28.9351 75.3916 28.9921 79.9626L30.1943 177.336C30.2513 181.907 24.3558 185.69 17.0561 185.808L0.273688 186.079L0.608213 213.097L3136.85 162.584L3136.75 154.925C3136.23 155.055 3135.66 155.138 3135.06 155.145L3116.81 155.44C3114.16 155.485 3112.01 154.171 3111.99 152.53L3111.89 144.135C3111.86 142.477 3113.98 141.114 3116.64 141.07L3134.88 140.775C3135.48 140.764 3136.05 140.831 3136.58 140.941L3136.52 135.567L3039.78 137.125C3032.48 137.242 3026.49 133.649 3026.44 129.078L3025.24 31.7051C3025.18 27.1342 3031.07 23.3512 3038.37 23.2333L3135.12 21.6754L3135.04 14.8662C3134.51 15.0092 3133.94 15.0928 3133.34 15.1039L3115.1 15.3984C3112.44 15.4433 3110.29 14.1295 3110.27 12.4884L3110.17 4.08111C3110.13 2.43176 3112.24 1.05637 3114.9 1.01149ZM3069.38 144.818C3069.36 143.16 3071.48 141.798 3074.13 141.753L3092.38 141.458C3095.04 141.418 3097.18 142.71 3097.2 144.368L3097.3 152.763C3097.33 154.404 3095.21 155.783 3092.55 155.828L3074.31 156.123C3071.65 156.168 3069.51 154.854 3069.48 153.213L3069.38 144.818ZM3026.89 145.506C3026.87 143.848 3028.99 142.485 3031.64 142.44L3049.89 142.146C3052.55 142.101 3054.69 143.397 3054.71 145.055L3054.81 153.45C3054.83 155.091 3052.72 156.471 3050.06 156.516L3031.82 156.81C3029.16 156.855 3027.02 155.541 3026.99 153.9L3026.89 145.506ZM2940.17 6.81379C2940.15 5.16848 2942.26 3.79295 2944.92 3.74807L2963.16 3.45354C2965.82 3.41295 2967.97 4.7182 2967.99 6.36352L2968.09 14.7708C2968.11 16.4119 2966 17.7917 2963.34 17.8366L2945.1 18.1311C2942.44 18.1717 2940.29 16.8621 2940.27 15.2211L2940.17 6.81379ZM2897.68 7.49676C2897.66 5.85562 2899.77 4.47593 2902.43 4.43105L2920.67 4.13652C2923.33 4.09164 2925.48 5.40118 2925.5 7.04649L2925.6 15.4538C2925.62 17.0948 2923.51 18.4747 2920.85 18.5195L2902.61 18.8141C2899.95 18.859 2897.8 17.5451 2897.78 15.9041L2897.68 7.49676ZM2855.18 8.18416C2855.16 6.53885 2857.28 5.16333 2859.93 5.11845L2878.18 4.82392C2880.83 4.77903 2882.98 6.08858 2883 7.73389L2883.1 16.1412C2883.13 17.7822 2881.01 19.1621 2878.35 19.2069L2860.11 19.5015C2857.45 19.5464 2855.31 18.2325 2855.28 16.5915L2855.18 8.18416ZM2812.69 8.86727C2812.66 7.22196 2814.78 5.84644 2817.44 5.80156L2835.68 5.50702C2838.34 5.46644 2840.48 6.77169 2840.51 8.417L2840.61 16.8242C2840.63 18.4653 2838.52 19.845 2835.86 19.8899L2817.62 20.1845C2814.96 20.225 2812.82 18.9155 2812.79 17.2745L2812.69 8.86727ZM2770.2 9.55024C2770.17 7.90923 2772.29 6.52941 2774.95 6.48453L2793.19 6.19C2795.85 6.14511 2797.99 7.45466 2798.02 9.09998L2798.12 17.5072C2798.15 19.1482 2796.03 20.528 2793.37 20.5729L2775.13 20.8674C2772.47 20.9123 2770.33 19.5985 2770.3 17.9575L2770.2 9.55024ZM2727.7 10.2376C2727.68 8.59221 2729.79 7.21681 2732.45 7.17193L2750.69 6.8774C2753.35 6.83252 2755.5 8.14207 2755.52 9.78737L2755.62 18.1947C2755.64 19.8357 2753.53 21.2155 2750.87 21.2604L2732.63 21.555C2729.97 21.5998 2727.82 20.286 2727.8 18.645L2727.7 10.2376ZM2685.2 10.9207C2685.18 9.27973 2687.3 7.89991 2689.95 7.85503L2708.2 7.5605C2710.85 7.51991 2713 8.82517 2713.02 10.4705L2713.12 18.8778C2713.15 20.5188 2711.03 21.8986 2708.37 21.9435L2690.13 22.2381C2687.47 22.2786 2685.33 20.9691 2685.3 19.3281L2685.2 10.9207ZM2642.71 11.6039C2642.68 9.96284 2644.8 8.58302 2647.46 8.53814L2665.7 8.2436C2668.36 8.19872 2670.5 9.50827 2670.53 11.1536L2670.63 19.5608C2670.66 21.2018 2668.54 22.5816 2665.88 22.6265L2647.64 22.921C2644.98 22.9659 2642.84 21.6521 2642.81 20.0111L2642.71 11.6039ZM2600.22 12.2911C2600.19 10.6501 2602.31 9.27029 2604.97 9.22541L2623.21 8.93088C2625.87 8.886 2628.01 10.1955 2628.04 11.8409L2628.15 20.2481C2628.17 21.8891 2626.05 23.2689 2623.39 23.3138L2605.15 23.6083C2602.49 23.6532 2600.35 22.3393 2600.32 20.6983L2600.22 12.2911ZM2557.72 12.9742C2557.7 11.3332 2559.81 9.95339 2562.47 9.90851L2580.71 9.61398C2583.37 9.57339 2585.52 10.8787 2585.54 12.524L2585.64 20.9313C2585.66 22.5723 2583.55 23.9521 2580.89 23.997L2562.65 24.2915C2559.99 24.3321 2557.84 23.0226 2557.82 21.3816L2557.72 12.9742ZM2515.22 13.6573C2515.2 12.0163 2517.32 10.6365 2519.97 10.5916L2538.22 10.2971C2540.87 10.2522 2543.02 11.5618 2543.04 13.2071L2543.14 21.6144C2543.17 23.2554 2541.05 24.6352 2538.39 24.6801L2520.15 24.9746C2517.49 25.0152 2515.35 23.7057 2515.32 22.0647L2515.22 13.6573ZM2472.73 14.3446C2472.71 12.7036 2474.83 11.3238 2477.48 11.2789L2495.73 10.9844C2498.39 10.9395 2500.53 12.249 2500.55 13.8943L2500.66 22.3015C2500.69 23.9426 2498.57 25.3224 2495.91 25.3673L2477.67 25.6618C2475.01 25.7067 2472.86 24.3928 2472.84 22.7518L2472.73 14.3446ZM2430.24 15.0277C2430.21 13.3867 2432.33 12.0069 2434.99 11.962L2453.23 11.6675C2455.89 11.6269 2458.03 12.9321 2458.06 14.5774L2458.16 22.9846C2458.19 24.6257 2456.07 26.0055 2453.41 26.0504L2435.17 26.3449C2432.51 26.3855 2430.37 25.0759 2430.34 23.4349L2430.24 15.0277ZM2387.74 15.7108C2387.72 14.0697 2389.83 12.69 2392.49 12.6451L2410.73 12.3506C2413.39 12.3057 2415.54 13.6152 2415.56 15.2605L2415.67 23.6678C2415.69 25.3088 2413.57 26.6886 2410.92 26.7335L2392.67 27.028C2390.02 27.0729 2387.87 25.759 2387.85 24.118L2387.74 15.7108ZM2345.24 16.3939C2345.22 14.7529 2347.34 13.3731 2349.99 13.3282L2368.24 13.0337C2370.89 12.9888 2373.04 14.2983 2373.06 15.9436L2373.17 24.3509C2373.2 25.9919 2371.08 27.3717 2368.42 27.4166L2350.18 27.7111C2347.52 27.756 2345.37 26.4464 2345.35 24.8011L2345.24 16.3939ZM2302.75 17.0812C2302.73 15.4402 2304.85 14.0604 2307.5 14.0155L2325.75 13.7209C2328.4 13.6804 2330.55 14.9856 2330.57 16.6309L2330.68 25.0381C2330.71 26.6791 2328.59 28.059 2325.93 28.1038L2307.69 28.3984C2305.03 28.439 2302.88 27.1294 2302.86 25.4884L2302.75 17.0812ZM2260.26 17.7643C2260.23 16.1233 2262.35 14.7435 2265.01 14.6986L2283.25 14.404C2285.91 14.3592 2288.05 15.6687 2288.08 17.314L2288.19 25.7212C2288.21 27.3622 2286.09 28.7421 2283.43 28.7869L2265.19 29.0815C2262.53 29.1264 2260.39 27.8125 2260.36 26.1715L2260.26 17.7643ZM2217.76 18.4474C2217.74 16.8064 2219.85 15.4266 2222.51 15.3817L2240.75 15.0872C2243.41 15.0423 2245.56 16.3518 2245.58 17.9971L2245.68 26.4045C2245.7 28.0455 2243.59 29.4253 2240.93 29.4702L2222.69 29.7647C2220.03 29.8096 2217.88 28.5 2217.86 26.8547L2217.76 18.4474ZM2132.77 19.8178C2132.75 18.1768 2134.87 16.7969 2137.52 16.7521L2155.77 16.4575C2158.42 16.4126 2160.57 17.7222 2160.59 19.3675L2160.7 27.7747C2160.73 29.4157 2158.61 30.7955 2155.95 30.8404L2137.71 31.135C2135.05 31.1798 2132.9 29.866 2132.88 28.225L2132.77 19.8178ZM2090.28 20.5009C2090.25 18.8599 2092.37 17.48 2095.03 17.4352L2113.27 17.1406C2115.93 17.1 2118.07 18.4053 2118.1 20.0506L2118.2 28.4579C2118.22 30.099 2116.1 31.4788 2113.45 31.5237L2095.2 31.8182C2092.55 31.8631 2090.4 30.5492 2090.38 28.9082L2090.28 20.5009ZM2047.78 21.1883C2047.76 19.5473 2049.87 18.1674 2052.53 18.1226L2070.77 17.828C2073.43 17.7832 2075.58 19.0927 2075.6 20.738L2075.7 29.1453C2075.72 30.7864 2073.61 32.1662 2070.95 32.2111L2052.71 32.5056C2050.05 32.5505 2047.9 31.2366 2047.88 29.5956L2047.78 21.1883ZM2005.29 21.8713C2005.27 20.2302 2007.38 18.8504 2010.04 18.8055L2028.28 18.511C2030.94 18.4661 2033.09 19.7757 2033.11 21.421L2033.22 29.8282C2033.24 31.4692 2031.12 32.849 2028.47 32.8939L2010.22 33.1884C2007.57 33.2333 2005.42 31.9195 2005.4 30.2785L2005.29 21.8713ZM1962.79 22.5544C1962.77 20.9133 1964.89 19.5335 1967.54 19.4886L1985.79 19.1941C1988.44 19.1492 1990.59 20.4588 1990.61 22.1041L1990.72 30.5113C1990.75 32.1523 1988.63 33.5321 1985.97 33.577L1967.73 33.8715C1965.07 33.9164 1962.92 32.6069 1962.9 30.9616L1962.79 22.5544ZM1920.3 23.2418C1920.28 21.6006 1922.39 20.2209 1925.05 20.176L1943.29 19.8815C1945.95 19.8366 1948.09 21.1462 1948.12 22.7915L1948.22 31.1987C1948.25 32.8397 1946.13 34.2195 1943.47 34.2644L1925.23 34.5589C1922.57 34.6038 1920.43 33.29 1920.4 31.649L1920.3 23.2418ZM1877.8 23.9249C1877.78 22.2839 1879.89 20.904 1882.55 20.8591L1900.79 20.5646C1903.45 20.524 1905.6 21.8293 1905.62 23.4746L1905.72 31.8819C1905.74 33.5229 1903.63 34.9028 1900.97 34.9476L1882.73 35.2422C1880.07 35.2871 1877.92 33.9732 1877.9 32.3322L1877.8 23.9249ZM1835.31 24.6078C1835.29 22.9668 1837.4 21.587 1840.06 21.5421L1858.3 21.2476C1860.96 21.207 1863.11 22.5123 1863.13 24.1576L1863.23 32.5649C1863.25 34.2059 1861.14 35.5857 1858.48 35.6306L1840.24 35.9251C1837.58 35.97 1835.43 34.6605 1835.41 33.0152L1835.31 24.6078ZM1792.81 25.2952C1792.8 23.6498 1794.91 22.2744 1797.56 22.2295L1815.81 21.935C1818.46 21.8901 1820.61 23.1997 1820.63 24.845L1820.73 33.2523C1820.76 34.8933 1818.64 36.2731 1815.98 36.318L1797.74 36.6125C1795.08 36.6574 1792.94 35.3436 1792.91 33.7026L1792.81 25.2952ZM1750.32 25.9783C1750.29 24.3373 1752.41 22.9575 1755.07 22.9126L1773.31 22.6181C1775.97 22.5775 1778.11 23.8828 1778.14 25.5281L1778.24 33.9353C1778.27 35.5763 1776.15 36.9561 1773.49 37.001L1755.25 37.2955C1752.59 37.3404 1750.45 36.0266 1750.42 34.3856L1750.32 25.9783ZM1707.83 26.6613C1707.8 25.0203 1709.92 23.6405 1712.58 23.5956L1730.82 23.3011C1733.48 23.2562 1735.62 24.5657 1735.65 26.2111L1735.75 34.6184C1735.77 36.2594 1733.65 37.6392 1731 37.6841L1712.75 37.9786C1710.1 38.0235 1707.95 36.714 1707.93 35.0687L1707.83 26.6613ZM1665.33 27.3487C1665.31 25.7034 1667.42 24.3279 1670.08 24.283L1688.32 23.9885C1690.98 23.9436 1693.13 25.2531 1693.15 26.8984L1693.26 35.3057C1693.28 36.9467 1691.17 38.3265 1688.51 38.3714L1670.26 38.6659C1667.61 38.7108 1665.46 37.3969 1665.44 35.7559L1665.33 27.3487ZM1622.83 28.0318C1622.81 26.3908 1624.93 25.011 1627.58 24.9661L1645.83 24.6716C1648.48 24.6267 1650.63 25.9362 1650.65 27.5816L1650.75 35.9889C1650.78 37.6299 1648.66 39.0097 1646 39.0546L1627.76 39.3491C1625.1 39.394 1622.96 38.0802 1622.93 36.4392L1622.83 28.0318ZM1580.34 28.7149C1580.31 27.0739 1582.43 25.6941 1585.09 25.6492L1603.33 25.3547C1605.99 25.3141 1608.13 26.6193 1608.16 28.2647L1608.26 36.6719C1608.29 38.3129 1606.17 39.6927 1603.51 39.7376L1585.27 40.0321C1582.61 40.077 1580.47 38.7674 1580.44 37.1221L1580.34 28.7149ZM1537.85 29.3979C1537.82 27.7569 1539.94 26.3771 1542.6 26.3322L1560.84 26.0377C1563.5 25.9928 1565.64 27.3023 1565.67 28.9476L1565.77 37.355C1565.79 38.996 1563.67 40.3758 1561.02 40.4207L1542.77 40.7152C1540.12 40.7601 1537.97 39.4463 1537.95 37.8052L1537.85 29.3979ZM1495.35 30.0853C1495.33 28.4443 1497.44 27.0645 1500.1 27.0196L1518.34 26.7251C1521 26.6802 1523.15 27.9897 1523.17 29.635L1523.28 38.0422C1523.3 39.6833 1521.18 41.0631 1518.53 41.108L1500.28 41.4025C1497.63 41.4474 1495.48 40.1378 1495.46 38.4925L1495.35 30.0853ZM1452.85 30.7684C1452.83 29.1274 1454.95 27.7476 1457.6 27.7027L1475.85 27.4082C1478.5 27.3676 1480.65 28.6728 1480.67 30.3181L1480.77 38.7255C1480.8 40.3665 1478.68 41.7463 1476.02 41.7912L1457.78 42.0857C1455.12 42.1306 1452.98 40.8211 1452.95 39.1757L1452.85 30.7684ZM1410.36 31.4514C1410.34 29.8104 1412.46 28.4305 1415.11 28.3857L1433.36 28.0911C1436.01 28.0463 1438.16 29.3558 1438.18 31.0011L1438.28 39.4084C1438.31 41.0495 1436.19 42.4293 1433.53 42.4742L1415.29 42.7687C1412.63 42.8136 1410.49 41.4997 1410.46 39.8587L1410.36 31.4514ZM1325.37 32.8219C1325.35 31.1809 1327.46 29.8011 1330.12 29.7562L1348.36 29.4616C1351.02 29.4168 1353.17 30.7263 1353.19 32.3716L1353.29 40.779C1353.31 42.42 1351.2 43.7998 1348.54 43.8447L1330.3 44.1392C1327.64 44.1841 1325.49 42.8745 1325.47 41.2292L1325.37 32.8219ZM1371.04 50.0845C1378.34 49.9665 1384.31 53.5686 1384.36 58.1225L1385.57 155.509C1385.62 160.067 1379.75 163.858 1372.44 163.976L1142.24 167.685C1134.93 167.803 1128.96 164.205 1128.9 159.647L1127.7 62.2608C1127.65 57.7028 1133.52 53.9116 1140.83 53.7936L1371.04 50.0845ZM1282.87 33.505C1282.85 31.8597 1284.97 30.4842 1287.62 30.4393L1305.87 30.1447C1308.52 30.0999 1310.67 31.4094 1310.69 33.0547L1310.79 41.4621C1310.82 43.1031 1308.7 44.4829 1306.04 44.5278L1287.8 44.8223C1285.14 44.8672 1283 43.5533 1282.97 41.9123L1282.87 33.505ZM1240.38 34.1923C1240.37 32.5511 1242.48 31.1714 1245.13 31.1265L1263.38 30.832C1266.04 30.7914 1268.18 32.0967 1268.2 33.742L1268.3 42.1493C1268.33 43.7903 1266.21 45.1702 1263.55 45.215L1245.31 45.5096C1242.65 45.5545 1240.51 44.2406 1240.48 42.5996L1240.38 34.1923ZM1197.89 34.8754C1197.86 33.2344 1199.98 31.8545 1202.64 31.8097L1220.88 31.5151C1223.54 31.4702 1225.68 32.7798 1225.71 34.4251L1225.81 42.8323C1225.84 44.4733 1223.72 45.8531 1221.06 45.898L1202.82 46.1926C1200.16 46.2374 1198.02 44.9279 1197.99 43.2826L1197.89 34.8754ZM1155.39 35.5585C1155.37 33.913 1157.48 32.5376 1160.14 32.4928L1178.38 32.1982C1181.04 32.1533 1183.19 33.4629 1183.21 35.1082L1183.31 43.5155C1183.33 45.1566 1181.22 46.5364 1178.56 46.5813L1160.32 46.8758C1157.66 46.9207 1155.51 45.6068 1155.49 43.9658L1155.39 35.5585ZM1112.89 36.2459C1112.87 34.6049 1114.99 33.225 1117.64 33.1802L1135.89 32.8856C1138.54 32.845 1140.69 34.1503 1140.71 35.7956L1140.82 44.2028C1140.85 45.8438 1138.73 47.2236 1136.07 47.2685L1117.83 47.5631C1115.17 47.6079 1113.02 46.2941 1113 44.6531L1112.89 36.2459ZM1070.4 36.9288C1070.38 35.2878 1072.5 33.908 1075.15 33.8631L1093.4 33.5686C1096.05 33.5237 1098.2 34.8333 1098.22 36.4786L1098.33 44.8858C1098.36 46.5268 1096.24 47.9066 1093.58 47.9515L1075.34 48.246C1072.68 48.2909 1070.53 46.9814 1070.51 45.3361L1070.4 36.9288ZM1027.91 37.612C1027.88 35.9666 1030 34.5911 1032.66 34.5462L1050.9 34.2517C1053.56 34.2068 1055.7 35.5164 1055.73 37.1617L1055.83 45.569C1055.85 47.21 1053.73 48.5899 1051.08 48.6347L1032.83 48.9293C1030.18 48.9741 1028.03 47.6603 1028.01 46.0193L1027.91 37.612ZM985.409 38.2994C985.386 36.6583 987.503 35.2785 990.161 35.2336L1008.4 34.9391C1011.06 34.8942 1013.21 36.2038 1013.23 37.8491L1013.34 46.2563C1013.35 47.8974 1011.24 49.2771 1008.59 49.322L990.344 49.6165C987.686 49.6614 985.54 48.3476 985.517 46.7066L985.409 38.2994ZM942.92 38.9823C942.896 37.3413 945.013 35.9615 947.671 35.9166L965.913 35.6221C968.572 35.5772 970.717 36.8868 970.741 38.5321L970.848 46.9393C970.872 48.5803 968.755 49.9601 966.097 50.005L947.854 50.2995C945.196 50.3444 943.05 49.0348 943.027 47.3895L942.92 38.9823ZM900.423 39.6654C900.406 38.02 902.516 36.6446 905.174 36.5997L923.417 36.3052C926.075 36.2603 928.221 37.5699 928.244 39.2152L928.352 47.6224C928.368 49.2635 926.258 50.6432 923.6 50.6881L905.358 50.9826C902.7 51.0275 900.554 49.7137 900.53 48.0726L900.423 39.6654ZM857.926 40.3485C857.903 38.7075 860.019 37.3277 862.678 37.2828L880.92 36.9883C883.578 36.9434 885.724 38.253 885.747 39.8983L885.848 48.3056C885.871 49.9466 883.755 51.3264 881.096 51.3713L862.854 51.6658C860.196 51.7107 858.05 50.3969 858.026 48.7559L857.926 40.3485ZM772.939 41.7189C772.916 40.0736 775.033 38.6981 777.691 38.6532L795.933 38.3587C798.592 38.3138 800.737 39.6233 800.761 41.2686L800.868 49.6759C800.892 51.3169 798.775 52.6967 796.117 52.7416L777.874 53.0361C775.216 53.081 773.07 51.7671 773.047 50.1261L772.939 41.7189ZM730.443 42.402C730.426 40.7609 732.536 39.3812 735.194 39.3363L753.437 39.0418C756.095 38.9969 758.241 40.3064 758.264 41.9517L758.365 50.3591C758.388 52.0001 756.271 53.3799 753.613 53.4248L735.371 53.7193C732.713 53.7642 730.567 52.4504 730.543 50.8094L730.443 42.402ZM687.946 43.0894C687.923 41.4484 690.039 40.0686 692.698 40.0237L710.94 39.7292C713.598 39.6843 715.744 40.9938 715.768 42.6391L715.868 51.0465C715.892 52.6875 713.775 54.0673 711.116 54.1122L692.874 54.4067C690.216 54.4516 688.07 53.1421 688.046 51.4968L687.946 43.0894ZM645.456 43.7724C645.439 42.127 647.55 40.7516 650.208 40.7067L668.45 40.4121C671.108 40.3673 673.254 41.6768 673.278 43.3221L673.378 51.7295C673.402 53.3705 671.285 54.7503 668.627 54.7952L650.384 55.0897C647.726 55.1346 645.58 53.8207 645.557 52.1797L645.456 43.7724ZM602.959 44.4555C602.936 42.8145 605.053 41.4347 607.711 41.3898L625.953 41.0953C628.612 41.0547 630.757 42.3599 630.781 44.0052L630.881 52.4126C630.905 54.0536 628.788 55.4334 626.13 55.4783L607.887 55.7728C605.229 55.8177 603.083 54.5038 603.06 52.8628L602.959 44.4555ZM560.463 45.1429C560.439 43.5019 562.556 42.1221 565.214 42.0772L583.457 41.7827C586.115 41.7378 588.261 43.0473 588.284 44.6926L588.385 53.1C588.408 54.741 586.291 56.1208 583.633 56.1657L565.391 56.4602C562.733 56.5051 560.587 55.1955 560.563 53.5502L560.463 45.1429ZM517.966 45.826C517.942 44.1807 520.059 42.8052 522.717 42.7603L540.96 42.4658C543.618 42.4209 545.764 43.7304 545.788 45.3757L545.888 53.7831C545.911 55.4241 543.795 56.8039 541.136 56.8488L522.894 57.1433C520.236 57.1882 518.09 55.8744 518.066 54.2333L517.966 45.826ZM475.476 46.509C475.453 44.868 477.569 43.4881 480.228 43.4433L498.47 43.1487C501.128 43.1039 503.274 44.4134 503.298 46.0587L503.398 54.466C503.422 56.1071 501.305 57.4869 498.647 57.5318L480.404 57.8263C477.746 57.8712 475.6 56.5573 475.577 54.9163L475.476 46.509ZM432.979 47.1964C432.956 45.5554 435.073 44.1755 437.731 44.1307L455.973 43.8361C458.632 43.7913 460.777 45.1008 460.801 46.7461L460.901 55.1534C460.925 56.7945 458.808 58.1743 456.15 58.2192L437.907 58.5137C435.249 58.5586 433.103 57.249 433.08 55.6037L432.979 47.1964ZM390.483 47.8795C390.459 46.2342 392.576 44.8587 395.234 44.8138L413.477 44.5192C416.135 44.4744 418.281 45.7839 418.304 47.4292L418.405 55.8365C418.428 57.4776 416.311 58.8574 413.653 58.9023L395.411 59.1968C392.753 59.2417 390.607 57.9278 390.583 56.2868L390.483 47.8795ZM347.986 48.5626C347.962 46.9216 350.079 45.5418 352.737 45.4969L370.98 45.2023C373.638 45.1575 375.784 46.467 375.807 48.1123L375.908 56.5197C375.931 58.1607 373.815 59.5405 371.156 59.5854L352.914 59.8799C350.256 59.9248 348.11 58.6109 348.086 56.9699L347.986 48.5626ZM305.496 49.2499C305.473 47.6088 307.589 46.229 310.248 46.1841L328.49 45.8896C331.148 45.8447 333.294 47.1543 333.318 48.7996L333.418 57.2069C333.442 58.8479 331.325 60.2278 328.667 60.2726L310.424 60.5672C307.766 60.6121 305.62 59.3025 305.597 57.6572L305.496 49.2499ZM262.999 49.933C262.976 48.2877 265.093 46.9121 267.751 46.8672L285.993 46.5727C288.651 46.5278 290.797 47.8374 290.821 49.4827L290.921 57.89C290.945 59.531 288.828 60.9109 286.17 60.9557L267.927 61.2503C265.269 61.2909 263.123 59.9813 263.1 58.3403L262.999 49.933ZM220.503 50.6161C220.479 48.9751 222.596 47.5952 225.254 47.5504L243.497 47.2558C246.155 47.2109 248.301 48.5205 248.324 50.1658L248.425 58.5731C248.448 60.2141 246.331 61.594 243.673 61.6388L225.431 61.9334C222.773 61.9783 220.627 60.6644 220.603 59.0234L220.503 50.6161ZM178.013 51.299C177.989 49.658 180.106 48.2782 182.764 48.2333L201.007 47.9388C203.665 47.8939 205.811 49.2035 205.834 50.8488L205.935 59.2561C205.958 60.8971 203.841 62.2769 201.183 62.3218L182.941 62.6164C180.283 62.6612 178.137 61.3474 178.113 59.7064L178.013 51.299ZM135.516 51.9864C135.493 50.3454 137.609 48.9656 140.268 48.9207L158.51 48.6262C161.168 48.5813 163.314 49.8909 163.338 51.5362L163.438 59.9435C163.462 61.5845 161.345 62.9643 158.687 63.0092L140.444 63.3038C137.786 63.3486 135.64 62.0348 135.617 60.3938L135.516 51.9864ZM93.0194 52.6695C92.9959 51.0285 95.1127 49.6487 97.7709 49.6038L116.013 49.3093C118.671 49.2644 120.817 50.574 120.841 52.2193L120.941 60.6266C120.965 62.2676 118.848 63.6474 116.19 63.6923L97.9474 63.9869C95.2892 64.0317 93.1433 62.7179 93.1198 61.0769L93.0194 52.6695ZM50.5226 53.3527C50.4991 51.7116 52.6159 50.3318 55.2741 50.2869L73.5165 49.9924C76.1746 49.9475 78.3206 51.2571 78.3441 52.9024L78.4445 61.3097C78.468 62.9507 76.3512 64.3306 73.693 64.3754L55.4506 64.67C52.7925 64.7148 50.6466 63.4053 50.623 61.76L50.5226 53.3527ZM37.6847 202.042C37.7081 203.683 35.5913 205.063 32.9332 205.108L14.6908 205.403C12.0326 205.447 9.88662 204.134 9.86315 202.493L9.75606 194.098C9.73227 192.44 11.8494 191.077 14.5076 191.033L32.75 190.738C35.4081 190.693 37.5538 191.99 37.5776 193.648L37.6847 202.042ZM35.9547 61.997C35.9782 63.638 33.8614 65.0178 31.2032 65.0627L12.9609 65.3572C10.3027 65.4021 8.15672 64.0883 8.13324 62.4473L8.03281 54.0399C8.00934 52.3989 10.1262 51.0191 12.7843 50.9742L31.0267 50.6797C33.6849 50.6348 35.8308 51.9443 35.8543 53.5897L35.9547 61.997ZM80.1814 201.359C80.2049 203 78.0881 204.38 75.4299 204.425L57.1875 204.719C54.5294 204.764 52.3834 203.45 52.3599 201.809L52.2597 193.415C52.2359 191.757 54.353 190.394 57.0112 190.349L75.2536 190.055C77.9118 190.01 80.0574 191.307 80.0812 192.965L80.1814 201.359ZM122.671 200.676C122.695 202.317 120.578 203.697 117.92 203.742L99.6774 204.036C97.0192 204.081 94.8733 202.772 94.8498 201.126L94.7427 192.732C94.7258 191.074 96.836 189.711 99.4942 189.666L117.737 189.372C120.395 189.327 122.54 190.624 122.564 192.282L122.671 200.676ZM165.168 199.989C165.191 201.63 163.075 203.01 160.416 203.055L142.174 203.349C139.516 203.394 137.37 202.08 137.346 200.439L137.246 192.045C137.222 190.386 139.34 189.024 141.998 188.979L160.24 188.684C162.898 188.639 165.044 189.936 165.068 191.594L165.168 199.989ZM207.665 199.306C207.688 200.947 205.571 202.327 202.913 202.371L184.671 202.666C182.013 202.711 179.867 201.397 179.843 199.756L179.736 191.362C179.719 189.703 181.829 188.341 184.488 188.296L202.73 188.001C205.388 187.957 207.534 189.253 207.558 190.911L207.665 199.306ZM250.155 198.623C250.178 200.264 248.061 201.644 245.403 201.688L227.161 201.983C224.503 202.028 222.357 200.718 222.333 199.073L222.233 190.679C222.209 189.02 224.326 187.658 226.984 187.613L245.227 187.318C247.885 187.278 250.031 188.57 250.054 190.228L250.155 198.623ZM292.651 197.935C292.675 199.576 290.558 200.956 287.9 201.001L269.657 201.296C266.999 201.34 264.853 200.027 264.83 198.386L264.73 189.991C264.706 188.333 266.823 186.97 269.481 186.925L287.723 186.631C290.382 186.586 292.527 187.883 292.551 189.541L292.651 197.935ZM301.269 172.978C301.325 177.536 295.444 181.327 288.137 181.445L57.9415 185.154C50.6349 185.272 44.6648 181.674 44.608 177.116L43.4056 79.7303C43.3487 75.1636 49.2235 71.3767 56.5369 71.2586L286.733 67.5498C294.039 67.4318 300.009 71.0296 300.066 75.5877L301.269 172.978ZM335.148 197.252C335.171 198.893 333.055 200.273 330.396 200.318L312.154 200.612C309.496 200.657 307.35 199.343 307.327 197.702L307.226 189.308C307.203 187.65 309.32 186.287 311.978 186.242L330.22 185.948C332.878 185.903 335.024 187.2 335.048 188.858L335.148 197.252ZM377.645 196.569C377.668 198.21 375.551 199.59 372.893 199.635L354.651 199.929C351.993 199.974 349.847 198.665 349.823 197.019L349.723 188.625C349.699 186.967 351.816 185.604 354.475 185.559L372.717 185.265C375.375 185.224 377.521 186.516 377.545 188.175L377.645 196.569ZM420.135 195.882C420.158 197.523 418.041 198.903 415.383 198.948L397.141 199.242C394.483 199.287 392.337 197.973 392.313 196.332L392.213 187.938C392.189 186.279 394.306 184.917 396.964 184.872L415.207 184.577C417.865 184.533 420.011 185.829 420.034 187.487L420.135 195.882ZM462.631 195.199C462.655 196.84 460.538 198.22 457.88 198.264L439.637 198.559C436.979 198.604 434.833 197.29 434.81 195.649L434.71 187.255C434.686 185.596 436.803 184.234 439.461 184.189L457.704 183.894C460.362 183.849 462.507 185.146 462.531 186.804L462.631 195.199ZM505.128 194.516C505.152 196.157 503.035 197.536 500.377 197.581L482.134 197.876C479.476 197.921 477.33 196.611 477.307 194.966L477.206 186.571C477.183 184.913 479.3 183.551 481.958 183.506L500.2 183.211C502.858 183.166 505.004 184.463 505.028 186.121L505.128 194.516ZM547.618 193.833C547.641 195.474 545.525 196.853 542.866 196.898L524.624 197.193C521.966 197.238 519.82 195.924 519.796 194.283L519.696 185.888C519.672 184.23 521.79 182.868 524.448 182.823L542.69 182.528C545.348 182.483 547.494 183.78 547.518 185.438L547.618 193.833ZM329.016 180.784C321.709 180.902 315.739 177.304 315.682 172.746L314.48 75.3597C314.423 70.8016 320.298 67.0104 327.604 66.8925L557.8 63.1836C565.107 63.0656 571.077 66.6678 571.133 71.2215L572.336 168.608C572.393 173.166 566.511 176.957 559.211 177.075L329.016 180.784ZM590.115 193.145C590.138 194.786 588.021 196.166 585.363 196.211L567.121 196.505C564.463 196.55 562.317 195.237 562.293 193.596L562.193 185.201C562.169 183.543 564.286 182.18 566.944 182.135L585.187 181.841C587.845 181.796 589.991 183.093 590.014 184.751L590.115 193.145ZM586.756 168.379L585.554 70.9934C585.497 66.4354 591.372 62.6442 598.678 62.5262L828.874 58.8173C836.181 58.6993 842.151 62.2972 842.208 66.8552L843.41 164.241C843.467 168.799 837.592 172.59 830.286 172.708L600.083 176.417C592.783 176.535 586.813 172.937 586.756 168.379ZM632.611 192.462C632.635 194.103 630.518 195.483 627.86 195.528L609.617 195.822C606.959 195.867 604.813 194.558 604.79 192.912L604.69 184.518C604.666 182.86 606.783 181.497 609.441 181.452L627.683 181.158C630.342 181.113 632.487 182.409 632.511 184.068L632.611 192.462ZM675.108 191.779C675.132 193.42 673.015 194.8 670.357 194.845L652.114 195.139C649.456 195.184 647.31 193.87 647.287 192.229L647.186 183.835C647.163 182.177 649.28 180.814 651.938 180.769L670.18 180.475C672.838 180.43 674.984 181.726 675.008 183.385L675.108 191.779ZM717.598 191.092C717.621 192.733 715.505 194.113 712.846 194.157L694.604 194.452C691.946 194.497 689.8 193.183 689.776 191.542L689.676 183.148C689.652 181.489 691.77 180.127 694.428 180.082L712.67 179.787C715.328 179.742 717.474 181.039 717.498 182.697L717.598 191.092ZM760.095 190.409C760.118 192.05 758.001 193.43 755.343 193.474L737.101 193.769C734.443 193.814 732.297 192.504 732.273 190.859L732.166 182.465C732.142 180.806 734.259 179.444 736.918 179.399L755.16 179.104C757.818 179.059 759.964 180.356 759.988 182.014L760.095 190.409ZM802.591 189.726C802.615 191.367 800.498 192.746 797.84 192.791L779.597 193.086C776.939 193.131 774.793 191.817 774.77 190.176L774.67 181.781C774.646 180.123 776.763 178.761 779.421 178.716L797.664 178.421C800.322 178.376 802.467 179.673 802.491 181.331L802.591 189.726ZM845.081 189.038C845.105 190.679 842.988 192.059 840.33 192.104L822.087 192.399C819.429 192.443 817.283 191.13 817.26 189.489L817.153 181.094C817.129 179.436 819.246 178.073 821.904 178.029L840.146 177.734C842.805 177.689 844.95 178.986 844.974 180.644L845.081 189.038ZM843.358 48.9972C843.382 50.6382 841.265 52.018 838.607 52.0629L820.364 52.3574C817.706 52.4023 815.56 51.0927 815.537 49.4474L815.436 41.0401C815.413 39.3991 817.53 38.0193 820.188 37.9744L838.43 37.6799C841.088 37.635 843.234 38.9445 843.258 40.5898L843.358 48.9972ZM887.578 188.355C887.601 189.996 885.485 191.376 882.826 191.421L864.584 191.715C861.926 191.76 859.78 190.451 859.756 188.805L859.656 180.411C859.632 178.753 861.75 177.39 864.408 177.345L882.65 177.051C885.308 177.01 887.454 178.303 887.478 179.961L887.578 188.355ZM930.075 187.672C930.098 189.313 927.981 190.693 925.323 190.738L907.081 191.032C904.423 191.077 902.277 189.763 902.253 188.122L902.146 179.728C902.122 178.07 904.239 176.707 906.898 176.662L925.14 176.368C927.798 176.323 929.944 177.62 929.968 179.278L930.075 187.672ZM972.571 186.985C972.595 188.626 970.478 190.006 967.82 190.05L949.577 190.345C946.919 190.39 944.773 189.076 944.75 187.435L944.65 179.041C944.626 177.382 946.743 176.02 949.401 175.975L967.644 175.68C970.302 175.635 972.447 176.932 972.471 178.59L972.571 186.985ZM1015.06 186.302C1015.08 187.943 1012.97 189.323 1010.31 189.367L992.067 189.662C989.409 189.707 987.263 188.397 987.24 186.752L987.133 178.358C987.109 176.699 989.226 175.337 991.884 175.292L1010.13 174.997C1012.78 174.957 1014.93 176.249 1014.95 177.907L1015.06 186.302ZM1057.56 185.619C1057.58 187.26 1055.46 188.639 1052.81 188.684L1034.56 188.979C1031.91 189.024 1029.76 187.71 1029.74 186.069L1029.64 177.674C1029.61 176.016 1031.73 174.654 1034.39 174.609L1052.63 174.314C1055.29 174.269 1057.43 175.566 1057.46 177.224L1057.56 185.619ZM1100.05 184.931C1100.08 186.572 1097.96 187.952 1095.3 187.997L1077.06 188.291C1074.4 188.336 1072.26 187.022 1072.23 185.381L1072.13 176.987C1072.1 175.329 1074.22 173.966 1076.88 173.921L1095.12 173.627C1097.78 173.582 1099.92 174.879 1099.95 176.537L1100.05 184.931ZM1101.37 168.346L871.164 172.055C863.857 172.173 857.887 168.575 857.831 164.017L856.628 66.6314C856.571 62.0734 862.446 58.2822 869.753 58.1642L1099.96 54.4552C1107.26 54.3372 1113.23 57.9351 1113.29 62.4931L1114.49 159.879C1114.55 164.437 1108.67 168.228 1101.37 168.346ZM1142.55 184.248C1142.57 185.889 1140.46 187.269 1137.8 187.314L1119.56 187.608C1116.9 187.653 1114.75 186.344 1114.73 184.698L1114.63 176.304C1114.61 174.646 1116.72 173.283 1119.38 173.238L1137.62 172.944C1140.28 172.899 1142.43 174.195 1142.45 175.854L1142.55 184.248ZM1185.04 183.565C1185.06 185.206 1182.95 186.586 1180.29 186.631L1162.05 186.925C1159.39 186.97 1157.24 185.656 1157.22 184.015L1157.11 175.621C1157.09 173.963 1159.21 172.6 1161.86 172.555L1180.11 172.261C1182.76 172.216 1184.91 173.513 1184.93 175.171L1185.04 183.565ZM1227.54 182.878C1227.56 184.519 1225.44 185.899 1222.79 185.943L1204.54 186.238C1201.89 186.283 1199.74 184.969 1199.72 183.328L1199.62 174.934C1199.59 173.275 1201.71 171.913 1204.37 171.868L1222.61 171.573C1225.27 171.528 1227.41 172.825 1227.44 174.483L1227.54 182.878ZM1270.03 182.195C1270.06 183.836 1267.94 185.215 1265.28 185.26L1247.04 185.555C1244.38 185.595 1242.24 184.286 1242.21 182.645L1242.11 174.251C1242.08 172.592 1244.2 171.23 1246.86 171.185L1265.1 170.89C1267.76 170.845 1269.9 172.142 1269.93 173.8L1270.03 182.195ZM1312.52 181.512C1312.55 183.153 1310.43 184.532 1307.77 184.577L1289.53 184.872C1286.87 184.917 1284.73 183.603 1284.7 181.962L1284.6 173.567C1284.58 171.909 1286.7 170.547 1289.35 170.502L1307.6 170.207C1310.25 170.162 1312.4 171.459 1312.42 173.117L1312.52 181.512ZM1355.02 180.829C1355.04 182.47 1352.93 183.849 1350.27 183.894L1332.03 184.189C1329.37 184.234 1327.22 182.92 1327.2 181.279L1327.09 172.884C1327.07 171.226 1329.19 169.864 1331.84 169.819L1350.09 169.524C1352.74 169.479 1354.89 170.776 1354.91 172.434L1355.02 180.829ZM1397.52 180.141C1397.54 181.782 1395.42 183.162 1392.77 183.207L1374.52 183.501C1371.87 183.546 1369.72 182.237 1369.7 180.591L1369.6 172.197C1369.57 170.539 1371.69 169.176 1374.35 169.131L1392.59 168.837C1395.25 168.792 1397.39 170.088 1397.42 171.747L1397.52 180.141ZM1395.79 40.0958C1395.81 41.7369 1393.69 43.1167 1391.04 43.1616L1372.79 43.4561C1370.14 43.501 1367.99 42.1871 1367.97 40.5461L1367.87 32.1388C1367.84 30.4978 1369.96 29.118 1372.62 29.0731L1390.86 28.7785C1393.52 28.7337 1395.66 30.0432 1395.69 31.6885L1395.79 40.0958ZM1440.01 179.458C1440.03 181.099 1437.91 182.479 1435.26 182.524L1417.01 182.818C1414.36 182.863 1412.21 181.549 1412.19 179.908L1412.08 171.514C1412.06 169.856 1414.17 168.493 1416.83 168.448L1435.07 168.154C1437.73 168.109 1439.88 169.406 1439.9 171.064L1440.01 179.458ZM1482.5 178.775C1482.53 180.416 1480.41 181.796 1477.75 181.841L1459.51 182.135C1456.85 182.18 1454.71 180.866 1454.68 179.225L1454.58 170.831C1454.56 169.173 1456.68 167.81 1459.33 167.765L1477.58 167.471C1480.23 167.426 1482.38 168.722 1482.4 170.381L1482.5 178.775ZM1525 178.088C1525.02 179.729 1522.91 181.108 1520.25 181.153L1502.01 181.448C1499.35 181.488 1497.2 180.179 1497.18 178.538L1497.07 170.144C1497.06 168.485 1499.17 167.123 1501.82 167.078L1520.07 166.783C1522.72 166.738 1524.87 168.035 1524.89 169.693L1525 178.088ZM1567.5 177.405C1567.52 179.046 1565.4 180.425 1562.75 180.47L1544.5 180.765C1541.85 180.81 1539.7 179.496 1539.68 177.855L1539.58 169.46C1539.55 167.802 1541.67 166.44 1544.33 166.395L1562.57 166.1C1565.23 166.055 1567.37 167.352 1567.4 169.01L1567.5 177.405ZM1609.99 176.722C1610.01 178.363 1607.89 179.742 1605.24 179.787L1586.99 180.082C1584.34 180.127 1582.19 178.813 1582.17 177.172L1582.06 168.778C1582.04 167.119 1584.15 165.757 1586.81 165.712L1605.05 165.417C1607.71 165.372 1609.86 166.669 1609.88 168.327L1609.99 176.722ZM1652.48 176.034C1652.51 177.675 1650.39 179.055 1647.73 179.1L1629.49 179.394C1626.83 179.439 1624.69 178.125 1624.66 176.484L1624.56 168.09C1624.54 166.432 1626.66 165.069 1629.31 165.024L1647.56 164.73C1650.21 164.685 1652.36 165.982 1652.38 167.64L1652.48 176.034ZM1656.64 151.147C1656.7 155.705 1650.81 159.496 1643.51 159.614L1413.31 163.323C1406.01 163.441 1400.04 159.843 1399.98 155.285L1398.78 57.8988C1398.72 53.3408 1404.59 49.5496 1411.91 49.4314L1642.1 45.7226C1649.41 45.6046 1655.38 49.2025 1655.44 53.7605L1656.64 151.147ZM1694.98 175.351C1695 176.992 1692.89 178.372 1690.23 178.417L1671.99 178.711C1669.33 178.756 1667.18 177.447 1667.16 175.801L1667.05 167.407C1667.04 165.749 1669.15 164.386 1671.8 164.341L1690.05 164.047C1692.7 164.002 1694.85 165.299 1694.87 166.957L1694.98 175.351ZM1737.48 174.668C1737.5 176.309 1735.38 177.689 1732.73 177.734L1714.48 178.028C1711.83 178.073 1709.68 176.759 1709.66 175.118L1709.56 166.724C1709.53 165.066 1711.65 163.703 1714.31 163.658L1732.55 163.364C1735.21 163.319 1737.35 164.615 1737.38 166.274L1737.48 174.668ZM1779.97 173.981C1779.99 175.622 1777.87 177.002 1775.22 177.046L1756.97 177.341C1754.32 177.382 1752.17 176.072 1752.15 174.431L1752.05 166.037C1752.02 164.378 1754.14 163.016 1756.8 162.971L1775.04 162.676C1777.7 162.631 1779.84 163.928 1779.87 165.586L1779.97 173.981ZM1822.46 173.298C1822.49 174.939 1820.37 176.318 1817.71 176.363L1799.47 176.658C1796.81 176.703 1794.67 175.389 1794.64 173.748L1794.54 165.353C1794.52 163.695 1796.64 162.333 1799.29 162.288L1817.54 161.993C1820.19 161.953 1822.34 163.245 1822.36 164.903L1822.46 173.298ZM1864.96 172.614C1864.98 174.255 1862.87 175.635 1860.21 175.68L1841.97 175.975C1839.31 176.02 1837.16 174.706 1837.14 173.065L1837.03 164.67C1837.02 163.012 1839.13 161.65 1841.78 161.605L1860.03 161.31C1862.68 161.265 1864.83 162.562 1864.85 164.22L1864.96 172.614ZM1907.45 171.927C1907.47 173.568 1905.36 174.948 1902.7 174.993L1884.46 175.287C1881.8 175.328 1879.65 174.018 1879.63 172.377L1879.53 163.983C1879.51 162.325 1881.62 160.962 1884.28 160.917L1902.52 160.623C1905.18 160.578 1907.33 161.875 1907.35 163.533L1907.45 171.927ZM1684.39 158.956C1677.08 159.074 1671.11 155.477 1671.05 150.919L1669.85 53.5325C1669.79 48.9745 1675.67 45.1833 1682.98 45.0653L1913.17 41.3564C1920.48 41.2385 1926.45 44.8363 1926.5 49.3943L1927.71 146.78C1927.76 151.338 1921.88 155.13 1914.58 155.248L1684.39 158.956ZM1949.95 171.244C1949.97 172.885 1947.85 174.265 1945.2 174.31L1926.95 174.604C1924.3 174.649 1922.15 173.335 1922.13 171.694L1922.03 163.3C1922 161.642 1924.12 160.279 1926.78 160.234L1945.02 159.94C1947.68 159.895 1949.82 161.191 1949.85 162.85L1949.95 171.244ZM1942.13 146.548L1940.93 49.1618C1940.87 44.6038 1946.75 40.8126 1954.06 40.6946L2184.25 36.9857C2191.56 36.8677 2197.53 40.4656 2197.59 45.0236L2198.79 142.41C2198.84 146.968 2192.96 150.759 2185.66 150.877L1955.46 154.586C1948.15 154.708 1942.19 151.106 1942.13 146.548ZM1992.44 170.561C1992.47 172.202 1990.35 173.582 1987.69 173.627L1969.45 173.921C1966.79 173.966 1964.65 172.652 1964.62 171.011L1964.52 162.617C1964.5 160.959 1966.62 159.596 1969.27 159.551L1987.52 159.257C1990.18 159.212 1992.32 160.508 1992.34 162.167L1992.44 170.561ZM2034.94 169.878C2034.96 171.519 2032.85 172.899 2030.19 172.944L2011.95 173.238C2009.29 173.283 2007.14 171.973 2007.12 170.328L2007.02 161.934C2007 160.276 2009.11 158.913 2011.77 158.868L2030.01 158.573C2032.67 158.529 2034.82 159.825 2034.84 161.483L2034.94 169.878ZM2077.43 169.191C2077.45 170.832 2075.34 172.211 2072.68 172.256L2054.44 172.551C2051.78 172.596 2049.63 171.286 2049.61 169.641L2049.5 161.247C2049.48 159.588 2051.6 158.226 2054.25 158.181L2072.5 157.886C2075.15 157.841 2077.3 159.138 2077.32 160.796L2077.43 169.191ZM2119.93 168.508C2119.95 170.149 2117.83 171.528 2115.18 171.573L2096.93 171.868C2094.28 171.908 2092.13 170.599 2092.11 168.958L2092.01 160.563C2091.98 158.905 2094.1 157.543 2096.76 157.498L2115 157.203C2117.66 157.158 2119.8 158.455 2119.83 160.113L2119.93 168.508ZM2162.42 167.824C2162.45 169.465 2160.33 170.845 2157.67 170.89L2139.43 171.185C2136.77 171.23 2134.63 169.92 2134.6 168.275L2134.5 159.88C2134.48 158.222 2136.6 156.859 2139.25 156.815L2157.5 156.52C2160.16 156.475 2162.3 157.772 2162.32 159.43L2162.42 167.824ZM2204.92 167.137C2204.94 168.778 2202.83 170.158 2200.17 170.203L2181.93 170.497C2179.27 170.542 2177.12 169.233 2177.1 167.587L2177 159.193C2176.98 157.535 2179.09 156.172 2181.75 156.127L2199.99 155.833C2202.65 155.792 2204.8 157.084 2204.82 158.743L2204.92 167.137ZM2203.19 27.0917C2203.21 28.7327 2201.1 30.1126 2198.44 30.1574L2180.2 30.452C2177.54 30.4969 2175.39 29.183 2175.37 27.542L2175.27 19.1347C2175.25 17.4937 2177.36 16.1138 2180.02 16.069L2198.26 15.7744C2200.92 15.7338 2203.07 17.0391 2203.09 18.6844L2203.19 27.0917ZM2247.41 166.454C2247.43 168.095 2245.32 169.475 2242.66 169.52L2224.42 169.814C2221.76 169.859 2219.61 168.545 2219.59 166.904L2219.48 158.51C2219.46 156.852 2221.58 155.489 2224.23 155.444L2242.48 155.15C2245.13 155.105 2247.28 156.402 2247.3 158.06L2247.41 166.454ZM2289.91 165.771C2289.93 167.412 2287.81 168.792 2285.16 168.837L2266.91 169.131C2264.26 169.176 2262.11 167.867 2262.09 166.221L2261.99 157.827C2261.96 156.169 2264.08 154.806 2266.74 154.761L2284.98 154.467C2287.64 154.422 2289.78 155.718 2289.81 157.377L2289.91 165.771ZM2332.4 165.084C2332.43 166.725 2330.31 168.104 2327.65 168.149L2309.41 168.444C2306.75 168.489 2304.61 167.179 2304.58 165.534L2304.48 157.139C2304.45 155.481 2306.57 154.119 2309.23 154.074L2327.47 153.779C2330.13 153.739 2332.27 155.031 2332.3 156.689L2332.4 165.084ZM2374.89 164.401C2374.92 166.042 2372.8 167.421 2370.14 167.466L2351.9 167.761C2349.24 167.806 2347.1 166.492 2347.07 164.851L2346.97 156.456C2346.95 154.798 2349.07 153.436 2351.72 153.391L2369.97 153.096C2372.62 153.051 2374.77 154.348 2374.79 156.006L2374.89 164.401ZM2417.39 163.717C2417.41 165.358 2415.3 166.738 2412.64 166.783L2394.4 167.078C2391.74 167.123 2389.59 165.813 2389.57 164.168L2389.46 155.773C2389.44 154.115 2391.56 152.753 2394.21 152.708L2412.46 152.413C2415.11 152.368 2417.26 153.665 2417.28 155.323L2417.39 163.717ZM2459.89 163.03C2459.91 164.671 2457.79 166.051 2455.14 166.096L2436.89 166.39C2434.24 166.435 2432.09 165.126 2432.07 163.48L2431.97 155.086C2431.94 153.428 2434.06 152.065 2436.72 152.02L2454.96 151.726C2457.62 151.685 2459.76 152.977 2459.79 154.636L2459.89 163.03ZM2469.86 138.052C2469.92 142.61 2464.04 146.401 2456.73 146.519L2226.53 150.228C2219.23 150.346 2213.26 146.748 2213.2 142.19L2212 44.8042C2211.94 40.2462 2217.82 36.4549 2225.13 36.3369L2455.33 32.628C2462.63 32.51 2468.6 36.1122 2468.66 40.6659L2469.86 138.052ZM2502.38 162.347C2502.41 163.988 2500.29 165.368 2497.63 165.413L2479.39 165.707C2476.73 165.752 2474.59 164.438 2474.56 162.797L2474.46 154.403C2474.43 152.745 2476.55 151.382 2479.21 151.337L2497.45 151.043C2500.11 151.002 2502.25 152.294 2502.28 153.953L2502.38 162.347ZM2544.87 161.664C2544.9 163.305 2542.78 164.685 2540.12 164.73L2521.88 165.024C2519.22 165.069 2517.08 163.76 2517.05 162.114L2516.95 153.72C2516.93 152.062 2519.05 150.699 2521.7 150.654L2539.95 150.36C2542.61 150.315 2544.75 151.611 2544.77 153.27L2544.87 161.664ZM2587.37 160.977C2587.39 162.618 2585.28 163.997 2582.62 164.042L2564.38 164.337C2561.72 164.382 2559.57 163.072 2559.55 161.427L2559.44 153.033C2559.42 151.374 2561.54 150.012 2564.19 149.967L2582.44 149.672C2585.09 149.627 2587.24 150.924 2587.26 152.582L2587.37 160.977ZM2629.87 160.293C2629.89 161.934 2627.77 163.314 2625.12 163.359L2606.87 163.654C2604.22 163.699 2602.07 162.385 2602.05 160.744L2601.95 152.349C2601.92 150.691 2604.04 149.328 2606.7 149.284L2624.94 148.989C2627.6 148.944 2629.74 150.241 2629.77 151.899L2629.87 160.293ZM2672.36 159.61C2672.38 161.252 2670.26 162.631 2667.61 162.676L2649.36 162.971C2646.71 163.016 2644.56 161.702 2644.54 160.061L2644.43 151.666C2644.41 150.008 2646.52 148.646 2649.18 148.601L2667.42 148.306C2670.08 148.261 2672.23 149.558 2672.25 151.216L2672.36 159.61ZM2714.85 158.927C2714.88 160.568 2712.76 161.948 2710.1 161.993L2691.86 162.288C2689.2 162.333 2687.06 161.023 2687.03 159.378L2686.93 150.983C2686.9 149.325 2689.02 147.962 2691.68 147.918L2709.92 147.623C2712.58 147.578 2714.72 148.875 2714.75 150.533L2714.85 158.927ZM2497.61 145.858C2490.3 145.976 2484.33 142.378 2484.28 137.82L2483.08 40.4335C2483.02 35.8755 2488.9 32.0843 2496.2 31.9663L2726.41 28.2573C2733.71 28.1393 2739.68 31.7372 2739.74 36.2952L2740.94 133.681C2741 138.239 2735.12 142.031 2727.82 142.148L2497.61 145.858ZM2757.35 158.24C2757.37 159.881 2755.26 161.261 2752.6 161.306L2734.36 161.6C2731.7 161.645 2729.55 160.331 2729.53 158.69L2729.42 150.296C2729.4 148.638 2731.52 147.275 2734.17 147.23L2752.42 146.936C2755.07 146.891 2757.22 148.187 2757.24 149.846L2757.35 158.24ZM2799.85 157.557C2799.87 159.198 2797.75 160.578 2795.1 160.623L2776.85 160.917C2774.2 160.958 2772.05 159.648 2772.03 158.007L2771.93 149.613C2771.9 147.955 2774.02 146.592 2776.68 146.547L2794.92 146.252C2797.58 146.208 2799.72 147.504 2799.75 149.162L2799.85 157.557ZM2842.34 156.874C2842.36 158.515 2840.24 159.895 2837.59 159.94L2819.34 160.234C2816.69 160.279 2814.54 158.969 2814.52 157.324L2814.41 148.93C2814.39 147.272 2816.5 145.909 2819.16 145.864L2837.4 145.57C2840.06 145.525 2842.21 146.821 2842.23 148.48L2842.34 156.874ZM2884.83 156.187C2884.86 157.828 2882.74 159.207 2880.08 159.252L2861.84 159.547C2859.18 159.592 2857.04 158.278 2857.01 156.637L2856.91 148.242C2856.9 146.584 2859.01 145.221 2861.66 145.177L2879.91 144.882C2882.56 144.837 2884.71 146.134 2884.73 147.792L2884.83 156.187ZM2927.33 155.503C2927.35 157.144 2925.24 158.524 2922.58 158.569L2904.34 158.864C2901.68 158.904 2899.53 157.595 2899.51 155.954L2899.4 147.559C2899.39 145.901 2901.5 144.539 2904.15 144.494L2922.4 144.199C2925.05 144.154 2927.2 145.451 2927.22 147.109L2927.33 155.503ZM2969.82 154.82C2969.84 156.461 2967.73 157.841 2965.07 157.886L2946.83 158.181C2944.17 158.226 2942.02 156.916 2942 155.271L2941.9 146.876C2941.88 145.218 2943.99 143.855 2946.65 143.811L2964.89 143.516C2967.55 143.475 2969.7 144.768 2969.72 146.426L2969.82 154.82ZM3012.32 154.133C3012.33 155.774 3010.22 157.154 3007.57 157.199L2989.32 157.493C2986.67 157.538 2984.52 156.224 2984.5 154.583L2984.39 146.189C2984.37 144.531 2986.48 143.168 2989.14 143.123L3007.38 142.829C3010.04 142.784 3012.19 144.081 3012.21 145.739L3012.32 154.133ZM3012.01 129.319C3012.07 133.877 3006.19 137.669 2998.88 137.787L2768.68 141.496C2761.38 141.614 2755.41 138.016 2755.35 133.458L2754.15 36.0716C2754.09 31.5136 2759.97 27.7224 2767.27 27.6044L2997.47 23.8956C3004.77 23.7776 3010.74 27.3797 3010.8 31.9335L3012.01 129.319ZM3010.59 14.092C3010.61 15.7331 3008.49 17.1129 3005.84 17.1578L2987.59 17.4523C2984.94 17.4972 2982.79 16.1833 2982.77 14.5423L2982.66 6.1351C2982.64 4.48967 2984.75 3.11427 2987.41 3.06939L3005.65 2.77486C3008.31 2.72998 3010.46 4.03953 3010.48 5.68484L3010.59 14.092ZM3053.08 13.4046C3053.11 15.0457 3050.99 16.4255 3048.33 16.4704L3030.09 16.7649C3027.43 16.8098 3025.29 15.4959 3025.26 13.8549L3025.16 5.44758C3025.14 3.80657 3027.26 2.42674 3029.91 2.38186L3048.16 2.08733C3050.81 2.04245 3052.96 3.352 3052.98 4.9973L3053.08 13.4046ZM3095.58 12.7215C3095.61 14.3626 3093.49 15.7424 3090.83 15.7873L3072.59 16.0818C3069.93 16.1267 3067.78 14.8128 3067.76 13.1718L3067.66 4.76447C3067.64 3.11916 3069.75 1.74364 3072.41 1.69876L3090.65 1.40423C3093.31 1.36364 3095.46 2.6689 3095.48 4.3142L3095.58 12.7215Z" fill="url(#paint0_linear_97_151)"/>
<g opacity="0.7">
<path d="M28.8269 79.9656L30.0291 177.339C30.0861 181.91 24.1906 185.693 16.8909 185.811L0.108447 186.082L-1.29602 72.191L15.4864 71.9192C22.7861 71.8014 28.7699 75.3947 28.8269 79.9656Z" fill="#0A0909"/>
<path d="M301.103 172.981C301.16 177.539 295.279 181.33 287.972 181.448L57.7763 185.157C50.4697 185.275 44.4996 181.677 44.4428 177.119L43.2404 79.7334C43.1835 75.1667 49.0582 71.3798 56.3717 71.2617L286.567 67.5529C293.874 67.4349 299.844 71.037 299.901 75.5908L301.103 172.981Z" fill="#0A0909"/>
<path d="M572.178 168.615C572.234 173.173 566.36 176.964 559.053 177.082L328.857 180.791C321.551 180.909 315.581 177.307 315.524 172.753L314.321 75.3669C314.265 70.8088 320.139 67.0176 327.446 66.8997L557.642 63.1908C564.948 63.0728 570.918 66.675 570.975 71.2287L572.178 168.615Z" fill="#0A0909"/>
<path d="M843.252 164.248C843.309 168.806 837.434 172.598 830.127 172.716L599.925 176.425C592.618 176.543 586.648 172.945 586.591 168.387L585.389 71.0007C585.332 66.4426 591.207 62.6514 598.513 62.5334L828.716 58.8245C836.023 58.7065 841.993 62.3086 842.049 66.8624L843.252 164.248Z" fill="#0A0909"/>
<path d="M1114.33 159.882C1114.38 164.44 1108.5 168.232 1101.2 168.349L870.999 172.058C863.692 172.176 857.722 168.574 857.665 164.02L856.463 66.6344C856.406 62.0764 862.281 58.2852 869.587 58.1672L1099.79 54.4582C1107.1 54.3402 1113.07 57.9424 1113.12 62.4961L1114.33 159.882Z" fill="#0A0909"/>
<path d="M1385.4 155.516C1385.46 160.074 1379.58 163.865 1372.28 163.983L1142.07 167.692C1134.77 167.81 1128.8 164.208 1128.74 159.654L1127.54 62.2681C1127.48 57.7101 1133.36 53.9189 1140.66 53.8009L1370.86 50.0919C1378.17 49.9739 1384.14 53.5761 1384.19 58.13L1385.4 155.516Z" fill="#0A0909"/>
<path d="M1656.47 151.15C1656.53 155.708 1650.65 159.499 1643.34 159.617L1413.15 163.326C1405.84 163.444 1399.87 159.846 1399.81 155.288L1398.61 57.9018C1398.55 53.3438 1404.43 49.5526 1411.74 49.4344L1641.94 45.7256C1649.25 45.6076 1655.22 49.2055 1655.27 53.7635L1656.47 151.15Z" fill="#0A0909"/>
</g>
</g>
<defs>
<linearGradient id="paint0_linear_97_151" x1="-0.883302" y1="132.479" x2="3136.25" y2="74.4387" gradientUnits="userSpaceOnUse">
<stop stop-color="white"/>
<stop offset="0.25" stop-color="white" stop-opacity="0.21"/>
<stop offset="0.5" stop-color="white" stop-opacity="0"/>
<stop offset="0.75" stop-color="white" stop-opacity="0"/>
<stop offset="1" stop-color="white" stop-opacity="0"/>
</linearGradient>
</defs>
</svg>
